<svg xmlns="http://www.w3.org/2000/svg" xmlns:xlink="http://www.w3.org/1999/xlink" xmlns:lucid="lucid" width="1205" height="340"><g transform="translate(-95.00000000000011 120)" lucid:page-tab-id="0_0"><path d="M115-41.48V-94a6 6 0 0 1 6-6h1153a6 6 0 0 1 6 6v52.52z" stroke="#5e5e5e" stroke-width="3" fill="#e3fae3"/><path d="M1280-41.48V194a6 6 0 0 1-6 6H121a6 6 0 0 1-6-6V-41.5z" stroke="#5e5e5e" stroke-width="3" fill="none"/><use xlink:href="#a" transform="matrix(1,0,0,1,115.00000000000011,-100) translate(462.94108072916674 41.997287326388886)"/><use xlink:href="#b" transform="matrix(1,0,0,1,115.00000000000011,-100) translate(500.7188585069445 41.997287326388886)"/><use xlink:href="#c" transform="matrix(1,0,0,1,115.00000000000011,-100) translate(576.0899522569445 41.997287326388886)"/><path d="M183.75 32.3a6 6 0 0 1 6-6h193a6 6 0 0 1 6 6v94.66a6 6 0 0 1-6 6h-193a6 6 0 0 1-6-6z" stroke="#5e5e5e" stroke-width="3" fill="#edf5ff"/><use xlink:href="#d" transform="matrix(1,0,0,1,195.75000000000023,38.29530164930554) translate(10.043209876543216 30.076388888888886)"/><use xlink:href="#e" transform="matrix(1,0,0,1,195.75000000000023,38.29530164930554) translate(127.83333333333333 30.076388888888886)"/><use xlink:href="#f" transform="matrix(1,0,0,1,195.75000000000023,38.29530164930554) translate(13.716049382716065 67.40972222222221)"/><use xlink:href="#g" transform="matrix(1,0,0,1,195.75000000000023,38.29530164930554) translate(100.04938271604938 67.40972222222221)"/><path d="M472.5 22.3a6 6 0 0 1 6-6H794a6 6 0 0 1 6 6v114.66a6 6 0 0 1-6 6H478.5a6 6 0 0 1-6-6z" stroke="#5e5e5e" stroke-width="3" fill="#edf5ff"/><use xlink:href="#h" transform="matrix(1,0,0,1,484.50000000000034,28.295301649305543) translate(25.956790123456813 37.763888888888886)"/><use xlink:href="#i" transform="matrix(1,0,0,1,484.50000000000034,28.295301649305543) translate(162.32716049382717 37.763888888888886)"/><use xlink:href="#j" transform="matrix(1,0,0,1,484.50000000000034,28.295301649305543) translate(196.89506172839506 37.763888888888886)"/><use xlink:href="#k" transform="matrix(1,0,0,1,484.50000000000034,28.295301649305543) translate(1.0679012345679268 75.09722222222221)"/><use xlink:href="#l" transform="matrix(1,0,0,1,484.50000000000034,28.295301649305543) translate(64.84567901234568 75.09722222222221)"/><use xlink:href="#m" transform="matrix(1,0,0,1,484.50000000000034,28.295301649305543) translate(173.47530864197532 75.09722222222221)"/><use xlink:href="#n" transform="matrix(1,0,0,1,484.50000000000034,28.295301649305543) translate(225.24074074074073 75.09722222222221)"/><path d="M883.75 21.55a6 6 0 0 1 6-6h315.5a6 6 0 0 1 6 6v108a6 6 0 0 1-6 6h-315.5a6 6 0 0 1-6-6z" stroke="#5e5e5e" stroke-width="3" fill="#edf5ff"/><g><use xlink:href="#o" transform="matrix(1,0,0,1,895.7500000000003,27.552571614583314) translate(65.66666666666667 36.888888888888886)"/><use xlink:href="#p" transform="matrix(1,0,0,1,895.7500000000003,27.552571614583314) translate(212.4074074074074 36.888888888888886)"/><use xlink:href="#q" transform="matrix(1,0,0,1,895.7500000000003,27.552571614583314) translate(44.06172839506175 74.22222222222221)"/><use xlink:href="#r" transform="matrix(1,0,0,1,895.7500000000003,27.552571614583314) translate(182.2469135802469 74.22222222222221)"/></g><path d="M391.25 79.63h61.25" stroke="#5e5e5e" stroke-width="2" fill="none"/><path d="M391.28 80.63h-1.03v-2h1.03z" stroke="#5e5e5e" stroke-width=".05" fill="#5e5e5e"/><path d="M467.76 79.63l-14.26 4.63V75z" stroke="#5e5e5e" stroke-width="2" fill="#5e5e5e"/><path d="M802.5 79.63h61.25" stroke="#5e5e5e" stroke-width="2" fill="none"/><path d="M802.53 80.63h-1.03v-2h1.03z" stroke="#5e5e5e" stroke-width=".05" fill="#5e5e5e"/><path d="M879 79.63l-14.25 4.63V75z" stroke="#5e5e5e" stroke-width="2" fill="#5e5e5e"/><defs><path fill="#333" d="M130-1118c-49 0-97-48-92-95 7-74 77-106 139-144 48-30 86-42 111-42 61 0 105 35 111 107 13 155-4 292 7 558 11 278 21 486 2 722-90 64-178 79-178-73 0-346 2-709 4-1062-48 19-83 29-104 29" id="s"/><path fill="#333" d="M280-225c67 0 116 72 116 138 0 64-59 119-123 119-72 0-138-40-138-105 0-66 78-152 145-152" id="t"/><g id="a"><use transform="matrix(0.01844618055555555,0,0,0.01844618055555555,0,0)" xlink:href="#s"/><use transform="matrix(0.01844618055555555,0,0,0.01844618055555555,11.436631944444441,0)" xlink:href="#t"/></g><path fill="#333" d="M411-1399c368 0 645 350 645 727 0 378-306 706-681 706-95 0-326-60-319-143 5-59 62-115 128-94-2-146-3-465-3-958-58 5-88-29-77-83 53-121 126-155 307-155zM358-169c284 19 504-231 500-510-3-195-93-378-215-458-76-49-171-76-288-76 2 233 3 581 3 1044" id="u"/><path fill="#333" d="M836-686c0 187-30 463 2 630-71 75-129 122-171 10-82 53-167 80-256 80C187 34 46-160 46-393c0-281 308-555 614-431 19-27 45-40 76-40 67 0 100 59 100 178zM249-382c0 105 58 213 157 213 80 0 157-36 232-109 3-73 4-181 4-326 1 1-110-58-139-48-132-6-254 139-254 270" id="v"/><path fill="#333" d="M584-872c50 0 94 39 94 90 0 53-31 85-94 98-29 6-81 10-156 10v662c-58 31-101 46-128 46-39 0-59-22-59-65 2-210 3-252 3-645-82 0-147-4-195-12-65-109-48-182 122-181 13-1 61 4 73 4v-364c-1-48 42-89 91-89 47 0 92 41 92 89v359c43-1 96-2 157-2" id="w"/><g id="b"><use transform="matrix(0.01844618055555555,0,0,0.01844618055555555,0,0)" xlink:href="#u"/><use transform="matrix(0.01844618055555555,0,0,0.01844618055555555,20.30924479166666,0)" xlink:href="#v"/><use transform="matrix(0.01844618055555555,0,0,0.01844618055555555,37.00303819444443,0)" xlink:href="#w"/><use transform="matrix(0.01844618055555555,0,0,0.01844618055555555,49.71245659722219,0)" xlink:href="#v"/></g><path fill="#333" d="M954-869c48 0 96 41 94 89 17 3-210 786-222 758-47 68-145 62-169-24-34-121-50-238-101-408-19 75-49 187-88 336C441-17 397 34 338 34c-35 0-62-19-87-54C195-99 65-647 49-794c132-103 169-61 221 139 17 65 35 167 68 300l99-369c26-97 65-145 116-145 31 0 57 15 80 45s64 167 123 414c24-74 73-259 101-370 16-61 54-89 97-89" id="x"/><path fill="#333" d="M468-848c193 0 298 180 298 385 0 53-38 94-92 94-48 0-81-25-95-75-20-75-16-213-105-213-95 0-223 127-223 222v425c-45 29-84 44-116 44-42 0-63-31-63-92 0-166-4-210-4-604 0-125 33-188 99-188 53 0 83 27 91 82 68-53 138-80 210-80" id="y"/><path fill="#333" d="M432-858c231 0 331 186 331 435 0 67-21 291-19 358 2 50-44 98-94 97-161-3-83-317-83-459 0-161-47-242-140-242-73 0-130 35-171 106v447c0 100-32 150-97 150C98 34 67-4 67-80c-2-279 3-404 3-720 48-30 87-45 116-45 27 0 46 14 56 41 59-36 123-54 190-54" id="z"/><path fill="#333" d="M783-642c0 71 21 306 21 377 0 460-121 690-364 690-136 0-280-109-327-207-34-72 20-145 90-143 27 0 63 24 107 73C435 286 558 226 587 5 297 130 44-148 44-418c0-291 294-545 577-389 67-39 142-43 157 48 3 17 5 56 5 117zM242-423c0 121 98 257 214 257 26 0 76-21 150-63-1-66-9-190-22-372-40-39-84-59-133-59-116 0-209 122-209 237" id="A"/><path fill="#333" d="M253-1232c0 339 47 894 1 1220C165 56 70 64 75-94c7-254-17-925-15-1193 0-75 31-112 92-112 67 0 101 56 101 167" id="B"/><path fill="#333" d="M166-1145c59 0 114 47 114 107 0 55-45 110-101 110S68-983 68-1038c0-54 42-107 98-107zm102 399c0 47 1 108-5 186-18 245-2 393-31 567C152 48 64 53 63-55c-3-213 9-280 9-561 0-147 36-220 109-220 58 0 87 30 87 90" id="C"/><g id="c"><use transform="matrix(0.01844618055555555,0,0,0.01844618055555555,0,0)" xlink:href="#x"/><use transform="matrix(0.01844618055555555,0,0,0.01844618055555555,20.217013888888882,0)" xlink:href="#y"/><use transform="matrix(0.01844618055555555,0,0,0.01844618055555555,34.5681423611111,0)" xlink:href="#v"/><use transform="matrix(0.01844618055555555,0,0,0.01844618055555555,51.26193576388887,0)" xlink:href="#z"/><use transform="matrix(0.01844618055555555,0,0,0.01844618055555555,66.44314236111109,0)" xlink:href="#A"/><use transform="matrix(0.01844618055555555,0,0,0.01844618055555555,82.38064236111109,0)" xlink:href="#B"/><use transform="matrix(0.01844618055555555,0,0,0.01844618055555555,88.48632812499997,0)" xlink:href="#C"/><use transform="matrix(0.01844618055555555,0,0,0.01844618055555555,94.85026041666663,0)" xlink:href="#z"/><use transform="matrix(0.01844618055555555,0,0,0.01844618055555555,110.03146701388884,0)" xlink:href="#A"/></g><path fill="#333" d="M127-220V0H93v-220H8v-28h204v28h-85" id="D"/><path fill="#333" d="M114-163C36-179 61-72 57 0H25l-1-190h30c1 12-1 29 2 39 6-27 23-49 58-41v29" id="E"/><path fill="#333" d="M100-194c62-1 85 37 85 99 1 63-27 99-86 99S16-35 15-95c0-66 28-99 85-99zM99-20c44 1 53-31 53-75 0-43-8-75-51-75s-53 32-53 75 10 74 51 75" id="F"/><path fill="#333" d="M115-194c55 1 70 41 70 98S169 2 115 4C84 4 66-9 55-30l1 105H24l-1-265h31l2 30c10-21 28-34 59-34zm-8 174c40 0 45-34 45-75s-6-73-45-74c-42 0-51 32-51 76 0 43 10 73 51 73" id="G"/><path fill="#333" d="M24-231v-30h32v30H24zM24 0v-190h32V0H24" id="H"/><path fill="#333" d="M96-169c-40 0-48 33-48 73s9 75 48 75c24 0 41-14 43-38l32 2c-6 37-31 61-74 61-59 0-76-41-82-99-10-93 101-131 147-64 4 7 5 14 7 22l-32 3c-4-21-16-35-41-35" id="I"/><path fill="#333" d="M141-36C126-15 110 5 73 4 37 3 15-17 15-53c-1-64 63-63 125-63 3-35-9-54-41-54-24 1-41 7-42 31l-33-3c5-37 33-52 76-52 45 0 72 20 72 64v82c-1 20 7 32 28 27v20c-31 9-61-2-59-35zM48-53c0 20 12 33 32 33 41-3 63-29 60-74-43 2-92-5-92 41" id="J"/><path fill="#333" d="M24 0v-261h32V0H24" id="K"/><g id="d"><use transform="matrix(0.08641975308641973,0,0,0.08641975308641973,0,0)" xlink:href="#D"/><use transform="matrix(0.08641975308641973,0,0,0.08641975308641973,17.802469135802465,0)" xlink:href="#E"/><use transform="matrix(0.08641975308641973,0,0,0.08641975308641973,28.086419753086414,0)" xlink:href="#F"/><use transform="matrix(0.08641975308641973,0,0,0.08641975308641973,45.37037037037036,0)" xlink:href="#G"/><use transform="matrix(0.08641975308641973,0,0,0.08641975308641973,62.654320987654295,0)" xlink:href="#H"/><use transform="matrix(0.08641975308641973,0,0,0.08641975308641973,69.48148148148147,0)" xlink:href="#I"/><use transform="matrix(0.08641975308641973,0,0,0.08641975308641973,85.03703703703702,0)" xlink:href="#J"/><use transform="matrix(0.08641975308641973,0,0,0.08641975308641973,102.32098765432096,0)" xlink:href="#K"/></g><path fill="#333" d="M85-194c31 0 48 13 60 33l-1-100h32l1 261h-30c-2-10 0-23-3-31C134-8 116 4 85 4 32 4 16-35 15-94c0-66 23-100 70-100zm9 24c-40 0-46 34-46 75 0 40 6 74 45 74 42 0 51-32 51-76 0-42-9-74-50-73" id="L"/><path fill="#333" d="M179-190L93 31C79 59 56 82 12 73V49c39 6 53-20 64-50L1-190h34L92-34l54-156h33" id="M"/><g id="e"><use transform="matrix(0.08641975308641973,0,0,0.08641975308641973,0,0)" xlink:href="#L"/><use transform="matrix(0.08641975308641973,0,0,0.08641975308641973,17.283950617283946,0)" xlink:href="#E"/><use transform="matrix(0.08641975308641973,0,0,0.08641975308641973,27.567901234567895,0)" xlink:href="#M"/></g><path fill="#333" d="M101-234c-31-9-42 10-38 44h38v23H63V0H32v-167H5v-23h27c-7-52 17-82 69-68v24" id="N"/><path fill="#333" d="M100-194c63 0 86 42 84 106H49c0 40 14 67 53 68 26 1 43-12 49-29l28 8c-11 28-37 45-77 45C44 4 14-33 15-96c1-61 26-98 85-98zm52 81c6-60-76-77-97-28-3 7-6 17-6 28h103" id="O"/><path fill="#333" d="M135-143c-3-34-86-38-87 0 15 53 115 12 119 90S17 21 10-45l28-5c4 36 97 45 98 0-10-56-113-15-118-90-4-57 82-63 122-42 12 7 21 19 24 35" id="P"/><path fill="#333" d="M59-47c-2 24 18 29 38 22v24C64 9 27 4 27-40v-127H5v-23h24l9-43h21v43h35v23H59v120" id="Q"/><g id="f"><use transform="matrix(0.08641975308641973,0,0,0.08641975308641973,0,0)" xlink:href="#N"/><use transform="matrix(0.08641975308641973,0,0,0.08641975308641973,8.641975308641973,0)" xlink:href="#F"/><use transform="matrix(0.08641975308641973,0,0,0.08641975308641973,25.925925925925917,0)" xlink:href="#E"/><use transform="matrix(0.08641975308641973,0,0,0.08641975308641973,36.209876543209866,0)" xlink:href="#O"/><use transform="matrix(0.08641975308641973,0,0,0.08641975308641973,53.49382716049381,0)" xlink:href="#P"/><use transform="matrix(0.08641975308641973,0,0,0.08641975308641973,69.04938271604937,0)" xlink:href="#Q"/></g><g id="g"><use transform="matrix(0.08641975308641973,0,0,0.08641975308641973,0,0)" xlink:href="#K"/><use transform="matrix(0.08641975308641973,0,0,0.08641975308641973,6.827160493827159,0)" xlink:href="#J"/><use transform="matrix(0.08641975308641973,0,0,0.08641975308641973,24.111111111111107,0)" xlink:href="#M"/><use transform="matrix(0.08641975308641973,0,0,0.08641975308641973,39.66666666666666,0)" xlink:href="#O"/><use transform="matrix(0.08641975308641973,0,0,0.08641975308641973,56.950617283950606,0)" xlink:href="#E"/></g><path fill="#333" d="M185-189c-5-48-123-54-124 2 14 75 158 14 163 119 3 78-121 87-175 55-17-10-28-26-33-46l33-7c5 56 141 63 141-1 0-78-155-14-162-118-5-82 145-84 179-34 5 7 8 16 11 25" id="R"/><path fill="#333" d="M117-194c89-4 53 116 60 194h-32v-121c0-31-8-49-39-48C34-167 62-67 57 0H25l-1-190h30c1 10-1 24 2 32 11-22 29-35 61-36" id="S"/><g id="h"><use transform="matrix(0.08641975308641973,0,0,0.08641975308641973,0,0)" xlink:href="#R"/><use transform="matrix(0.08641975308641973,0,0,0.08641975308641973,20.740740740740737,0)" xlink:href="#O"/><use transform="matrix(0.08641975308641973,0,0,0.08641975308641973,38.02469135802468,0)" xlink:href="#K"/><use transform="matrix(0.08641975308641973,0,0,0.08641975308641973,44.85185185185184,0)" xlink:href="#O"/><use transform="matrix(0.08641975308641973,0,0,0.08641975308641973,62.13580246913578,0)" xlink:href="#I"/><use transform="matrix(0.08641975308641973,0,0,0.08641975308641973,77.69135802469134,0)" xlink:href="#Q"/><use transform="matrix(0.08641975308641973,0,0,0.08641975308641973,86.33333333333331,0)" xlink:href="#H"/><use transform="matrix(0.08641975308641973,0,0,0.08641975308641973,93.16049382716048,0)" xlink:href="#F"/><use transform="matrix(0.08641975308641973,0,0,0.08641975308641973,110.44444444444441,0)" xlink:href="#S"/></g><g id="i"><use transform="matrix(0.08641975308641973,0,0,0.08641975308641973,0,0)" xlink:href="#F"/><use transform="matrix(0.08641975308641973,0,0,0.08641975308641973,17.283950617283946,0)" xlink:href="#N"/></g><path fill="#333" d="M206 0h-36l-40-164L89 0H53L-1-190h32L70-26l43-164h34l41 164 42-164h31" id="T"/><g id="j"><use transform="matrix(0.08641975308641973,0,0,0.08641975308641973,0,0)" xlink:href="#Q"/><use transform="matrix(0.08641975308641973,0,0,0.08641975308641973,8.641975308641973,0)" xlink:href="#F"/><use transform="matrix(0.08641975308641973,0,0,0.08641975308641973,25.925925925925917,0)" xlink:href="#T"/><use transform="matrix(0.08641975308641973,0,0,0.08641975308641973,48.30864197530863,0)" xlink:href="#S"/><use transform="matrix(0.08641975308641973,0,0,0.08641975308641973,65.59259259259258,0)" xlink:href="#P"/></g><path fill="#333" d="M106-169C34-169 62-67 57 0H25v-261h32l-1 103c12-21 28-36 61-36 89 0 53 116 60 194h-32v-121c2-32-8-49-39-48" id="U"/><g id="k"><use transform="matrix(0.08641975308641973,0,0,0.08641975308641973,0,0)" xlink:href="#T"/><use transform="matrix(0.08641975308641973,0,0,0.08641975308641973,22.38271604938271,0)" xlink:href="#H"/><use transform="matrix(0.08641975308641973,0,0,0.08641975308641973,29.20987654320987,0)" xlink:href="#Q"/><use transform="matrix(0.08641975308641973,0,0,0.08641975308641973,37.85185185185184,0)" xlink:href="#U"/></g><g id="l"><use transform="matrix(0.08641975308641973,0,0,0.08641975308641973,0,0)" xlink:href="#Q"/><use transform="matrix(0.08641975308641973,0,0,0.08641975308641973,8.641975308641973,0)" xlink:href="#E"/><use transform="matrix(0.08641975308641973,0,0,0.08641975308641973,18.925925925925924,0)" xlink:href="#F"/><use transform="matrix(0.08641975308641973,0,0,0.08641975308641973,36.20987654320987,0)" xlink:href="#G"/><use transform="matrix(0.08641975308641973,0,0,0.08641975308641973,53.49382716049382,0)" xlink:href="#H"/><use transform="matrix(0.08641975308641973,0,0,0.08641975308641973,60.32098765432099,0)" xlink:href="#I"/><use transform="matrix(0.08641975308641973,0,0,0.08641975308641973,75.87654320987653,0)" xlink:href="#J"/><use transform="matrix(0.08641975308641973,0,0,0.08641975308641973,93.16049382716048,0)" xlink:href="#K"/></g><g id="m"><use transform="matrix(0.08641975308641973,0,0,0.08641975308641973,0,0)" xlink:href="#L"/><use transform="matrix(0.08641975308641973,0,0,0.08641975308641973,17.283950617283946,0)" xlink:href="#E"/><use transform="matrix(0.08641975308641973,0,0,0.08641975308641973,27.567901234567895,0)" xlink:href="#M"/></g><g id="n"><use transform="matrix(0.08641975308641973,0,0,0.08641975308641973,0,0)" xlink:href="#N"/><use transform="matrix(0.08641975308641973,0,0,0.08641975308641973,8.641975308641973,0)" xlink:href="#F"/><use transform="matrix(0.08641975308641973,0,0,0.08641975308641973,25.925925925925917,0)" xlink:href="#E"/><use transform="matrix(0.08641975308641973,0,0,0.08641975308641973,36.209876543209866,0)" xlink:href="#O"/><use transform="matrix(0.08641975308641973,0,0,0.08641975308641973,53.49382716049381,0)" xlink:href="#P"/><use transform="matrix(0.08641975308641973,0,0,0.08641975308641973,69.04938271604937,0)" xlink:href="#Q"/></g><path fill="#333" d="M30 0v-248h187v28H63v79h144v27H63v87h162V0H30" id="V"/><path fill="#333" d="M141 0L90-78 38 0H4l68-98-65-92h35l48 74 47-74h35l-64 92 68 98h-35" id="W"/><g id="o"><use transform="matrix(0.08641975308641973,0,0,0.08641975308641973,0,0)" xlink:href="#V"/><use transform="matrix(0.08641975308641973,0,0,0.08641975308641973,20.740740740740737,0)" xlink:href="#W"/><use transform="matrix(0.08641975308641973,0,0,0.08641975308641973,36.29629629629629,0)" xlink:href="#Q"/><use transform="matrix(0.08641975308641973,0,0,0.08641975308641973,44.938271604938265,0)" xlink:href="#E"/><use transform="matrix(0.08641975308641973,0,0,0.08641975308641973,55.22222222222221,0)" xlink:href="#J"/><use transform="matrix(0.08641975308641973,0,0,0.08641975308641973,72.50617283950616,0)" xlink:href="#I"/><use transform="matrix(0.08641975308641973,0,0,0.08641975308641973,88.06172839506172,0)" xlink:href="#Q"/><use transform="matrix(0.08641975308641973,0,0,0.08641975308641973,96.70370370370371,0)" xlink:href="#H"/><use transform="matrix(0.08641975308641973,0,0,0.08641975308641973,103.53086419753086,0)" xlink:href="#F"/><use transform="matrix(0.08641975308641973,0,0,0.08641975308641973,120.81481481481481,0)" xlink:href="#S"/></g><g id="p"><use transform="matrix(0.08641975308641973,0,0,0.08641975308641973,0,0)" xlink:href="#F"/><use transform="matrix(0.08641975308641973,0,0,0.08641975308641973,17.283950617283946,0)" xlink:href="#N"/></g><g id="q"><use transform="matrix(0.08641975308641973,0,0,0.08641975308641973,0,0)" xlink:href="#G"/><use transform="matrix(0.08641975308641973,0,0,0.08641975308641973,17.283950617283946,0)" xlink:href="#E"/><use transform="matrix(0.08641975308641973,0,0,0.08641975308641973,27.567901234567895,0)" xlink:href="#F"/><use transform="matrix(0.08641975308641973,0,0,0.08641975308641973,44.85185185185184,0)" xlink:href="#Q"/><use transform="matrix(0.08641975308641973,0,0,0.08641975308641973,53.493827160493815,0)" xlink:href="#O"/><use transform="matrix(0.08641975308641973,0,0,0.08641975308641973,70.77777777777776,0)" xlink:href="#I"/><use transform="matrix(0.08641975308641973,0,0,0.08641975308641973,86.33333333333331,0)" xlink:href="#Q"/><use transform="matrix(0.08641975308641973,0,0,0.08641975308641973,94.97530864197529,0)" xlink:href="#O"/><use transform="matrix(0.08641975308641973,0,0,0.08641975308641973,112.25925925925924,0)" xlink:href="#L"/></g><g id="r"><use transform="matrix(0.08641975308641973,0,0,0.08641975308641973,0,0)" xlink:href="#J"/><use transform="matrix(0.08641975308641973,0,0,0.08641975308641973,17.283950617283946,0)" xlink:href="#E"/><use transform="matrix(0.08641975308641973,0,0,0.08641975308641973,27.567901234567895,0)" xlink:href="#O"/><use transform="matrix(0.08641975308641973,0,0,0.08641975308641973,44.85185185185184,0)" xlink:href="#J"/><use transform="matrix(0.08641975308641973,0,0,0.08641975308641973,62.13580246913578,0)" xlink:href="#P"/></g></defs></g></svg>