<svg xmlns="http://www.w3.org/2000/svg" xmlns:xlink="http://www.w3.org/1999/xlink" xmlns:lucid="lucid" width="1222.75" height="678.85"><g transform="translate(-37.25 140)" lucid:page-tab-id="0_0"><path d="M57.25-61.48V-114a6 6 0 0 1 6-6H1234a6 6 0 0 1 6 6v52.52z" stroke="#5e5e5e" stroke-width="3" fill="#e3fae3"/><path d="M1240-61.48v574.33a6 6 0 0 1-6 6H63.25a6 6 0 0 1-6-6V-61.5z" stroke="#5e5e5e" stroke-width="3" fill="none"/><use xlink:href="#a" transform="matrix(1,0,0,1,57.25,-120) translate(358.2849392361112 41.997287326388886)"/><use xlink:href="#b" transform="matrix(1,0,0,1,57.25,-120) translate(398.1655815972223 41.997287326388886)"/><use xlink:href="#c" transform="matrix(1,0,0,1,57.25,-120) translate(551.7300347222222 41.997287326388886)"/><use xlink:href="#d" transform="matrix(1,0,0,1,57.25,-120) translate(590.7252604166666 41.997287326388886)"/><use xlink:href="#e" transform="matrix(1,0,0,1,57.25,-120) translate(702.73046875 41.997287326388886)"/><path d="M500-15.9a6 6 0 0 1 6-6h274.5a6 6 0 0 1 6 6v66.08a6 6 0 0 1-6 6H506a6 6 0 0 1-6-6z" stroke="#5e5e5e" stroke-width="3" fill="#edf5ff"/><use xlink:href="#f" transform="matrix(1,0,0,1,512,-9.909396701388957) translate(10.814814814814838 35.201388888888886)"/><use xlink:href="#g" transform="matrix(1,0,0,1,512,-9.909396701388957) translate(133.1851851851852 35.201388888888886)"/><path d="M139.94 167.67a6 6 0 0 1 6-6H301.7a6 6 0 0 1 6 6v64.42a6 6 0 0 1-6 6H145.93a6 6 0 0 1-6-6z" stroke="#5e5e5e" stroke-width="3" fill="#edf5ff"/><use xlink:href="#h" transform="matrix(1,0,0,1,151.9375,173.66666666666669) translate(30.604938271604944 31.513888888888886)"/><path d="M120 324.1a6 6 0 0 1 6-6h195.63a6 6 0 0 1 6 6v88a6 6 0 0 1-6 6H126a6 6 0 0 1-6-6z" stroke="#5e5e5e" stroke-width="3" fill="#edf5ff"/><use xlink:href="#i" transform="matrix(1,0,0,1,132,330.0906032986111) translate(40.19135802469137 27.263888888888886)"/><use xlink:href="#j" transform="matrix(1,0,0,1,132,330.0906032986111) translate(5.666666666666686 64.59722222222221)"/><use xlink:href="#k" transform="matrix(1,0,0,1,132,330.0906032986111) translate(116.19753086419753 64.59722222222221)"/><path d="M643.25 58.68v44.24a6 6 0 0 1-6 6H229.8a6 6 0 0 0-6 6v26.74" stroke="#5e5e5e" stroke-width="2" fill="none"/><path d="M644.25 58.7h-2V57.7h2z" stroke="#5e5e5e" stroke-width=".05" fill="#5e5e5e"/><path d="M223.8 156.93l-4.62-14.27h9.27z" stroke="#5e5e5e" stroke-width="2" fill="#5e5e5e"/><path d="M223.8 240.6v57.5" stroke="#5e5e5e" stroke-width="2" fill="none"/><path d="M224.8 240.62h-2v-1.03h2z" stroke="#5e5e5e" stroke-width=".05" fill="#5e5e5e"/><path d="M223.8 313.36l-4.62-14.27h9.27z" stroke="#5e5e5e" stroke-width="2" fill="#5e5e5e"/><path d="M920.13 167.67a6 6 0 0 1 6-6h248a6 6 0 0 1 6 6v64.42a6 6 0 0 1-6 6h-248a6 6 0 0 1-6-6z" stroke="#5e5e5e" stroke-width="3" fill="#edf5ff"/><use xlink:href="#l" transform="matrix(1,0,0,1,932.1250000000001,173.66666666666669) translate(13.648148148148167 31.513888888888886)"/><use xlink:href="#m" transform="matrix(1,0,0,1,932.1250000000001,173.66666666666669) translate(118.9074074074074 31.513888888888886)"/><path d="M643.25 58.68v44.24a6 6 0 0 0 6 6h394.88a6 6 0 0 1 6 6v26.74" stroke="#5e5e5e" stroke-width="2" fill="none"/><path d="M644.25 58.7h-2V57.7h2z" stroke="#5e5e5e" stroke-width=".05" fill="#5e5e5e"/><path d="M1050.13 156.93l-4.64-14.27h9.26z" stroke="#5e5e5e" stroke-width="2" fill="#5e5e5e"/><path d="M400 167.67a6 6 0 0 1 6-6h155.75a6 6 0 0 1 6 6v64.42a6 6 0 0 1-6 6H406a6 6 0 0 1-6-6z" stroke="#5e5e5e" stroke-width="3" fill="#edf5ff"/><use xlink:href="#n" transform="matrix(1,0,0,1,412.00000000000006,173.66666666666669) translate(15.092592592592602 31.513888888888886)"/><path d="M660.06 167.67a6 6 0 0 1 6-6H821.8a6 6 0 0 1 6 6v64.42a6 6 0 0 1-6 6H666.07a6 6 0 0 1-6-6z" stroke="#5e5e5e" stroke-width="3" fill="#edf5ff"/><use xlink:href="#o" transform="matrix(1,0,0,1,672.0625000000002,173.66666666666669) translate(7.228395061728406 31.513888888888886)"/><path d="M640 324.1a6 6 0 0 1 6-6h195.63a6 6 0 0 1 6 6v88a6 6 0 0 1-6 6H646a6 6 0 0 1-6-6z" stroke="#5e5e5e" stroke-width="3" fill="#edf5ff"/><use xlink:href="#p" transform="matrix(1,0,0,1,652,330.0906032986111) translate(0.524691358024711 43.888888888888886)"/><use xlink:href="#q" transform="matrix(1,0,0,1,652,330.0906032986111) translate(72.94444444444444 43.888888888888886)"/><path d="M483.88 240.6v121.5a6 6 0 0 0 6 6H620" stroke="#5e5e5e" stroke-width="2" fill="none"/><path d="M484.88 240.62h-2v-1.03h2z" stroke="#5e5e5e" stroke-width=".05" fill="#5e5e5e"/><path d="M635.26 368.1L621 372.72v-9.28z" stroke="#5e5e5e" stroke-width="2" fill="#5e5e5e"/><path d="M743.94 240.6v37.43a.06.06 0 0 1-.07.06.06.06 0 0 0-.06.05v19.94" stroke="#5e5e5e" stroke-width="2" fill="none"/><path d="M744.94 240.62h-2v-1.03h2z" stroke="#5e5e5e" stroke-width=".05" fill="#5e5e5e"/><path d="M743.8 313.36l-4.62-14.27h9.27z" stroke="#5e5e5e" stroke-width="2" fill="#5e5e5e"/><path d="M1050.13 240.6v121.5a6 6 0 0 1-6 6h-176.5" stroke="#5e5e5e" stroke-width="2" fill="none"/><path d="M1051.13 240.62h-2v-1.03h2z" stroke="#5e5e5e" stroke-width=".05" fill="#5e5e5e"/><path d="M852.36 368.1l14.27-4.65v9.28z" stroke="#5e5e5e" stroke-width="2" fill="#5e5e5e"/><path d="M483.88 109.92V141.66M483.88 109.95v-1.03" stroke="#5e5e5e" stroke-width="2" fill="none"/><path d="M483.88 156.93l-4.64-14.27h9.27z" stroke="#5e5e5e" stroke-width="2" fill="#5e5e5e"/><path d="M743.94 109.92v31.74M743.94 109.95v-1.03" stroke="#5e5e5e" stroke-width="2" fill="none"/><path d="M743.94 156.93l-4.64-14.27h9.27z" stroke="#5e5e5e" stroke-width="2" fill="#5e5e5e"/><defs><path fill="#333" d="M874-172c53 0 97 45 97 99C971-2 761 34 340 34 242 34 193 0 193-67c0-85 48-193 150-319 90-111 186-218 278-329 102-124 150-228 150-307 0-116-99-176-220-176-156 0-209 91-186 234 8 52-48 100-100 100-71 0-103-105-103-186 0-214 174-349 393-349 229 0 411 151 411 375 0 121-58 262-184 415-101 122-208 237-311 356-26 30-45 58-58 81h461" id="r"/><path fill="#333" d="M280-225c67 0 116 72 116 138 0 64-59 119-123 119-72 0-138-40-138-105 0-66 78-152 145-152" id="s"/><g id="a"><use transform="matrix(0.01844618055555555,0,0,0.01844618055555555,0,0)" xlink:href="#r"/><use transform="matrix(0.01844618055555555,0,0,0.01844618055555555,20.751953124999993,0)" xlink:href="#s"/></g><path fill="#333" d="M1038-61c0 51-47 95-98 95-39 0-74-22-87-70-30-110-41-211-85-368-87-4-361 32-440 32-32 85-78 214-139 386C127 42 27 50 27-26c0-19 22-92 63-220 65-201 235-650 343-966 11-31 24-76 48-131 35-47 42-54 115-56 27 0 50 13 68 40 56 83 93 247 128 364 76 256 142 483 193 681 35 137 53 221 53 253zM717-597c-42-151-89-306-142-463-23 64-81 226-176 487 71-7 177-15 318-24" id="t"/><path fill="#333" d="M531-614c-33 0-117-43-150-43-49 0-84 9-103 26 45 67 311 167 362 220 54 56 87 121 87 208C727-59 571 34 418 34 267 34 142-29 43-154c7-41 48-130 87-128 2 0 37 22 104 66s127 66 179 66c66 0 107-17 123-50-5-45-48-90-128-136-72-41-147-78-217-121-80-49-116-111-116-174 0-130 162-224 297-224 79 0 256 66 256 140 0 50-47 101-97 101" id="u"/><path fill="#333" d="M741-273c50-2 102 44 100 94 0 19-8 40-25 63C764-40 600 34 473 34 251 34 46-175 46-396c0-217 200-459 413-459 160 0 336 211 336 369 0 44-28 73-82 92-62 22-312 32-464 24 15 104 106 205 224 203 39 0 88-18 149-53s100-53 119-53zM572-570c-76-133-187-104-270 20 39-1 129-7 270-20" id="v"/><path fill="#333" d="M476-126c0-66 16-285 16-352 0-127-35-191-105-191-52 0-95 33-128 99v459c-1 97-34 145-99 145C99 34 68-4 68-80c-3-280 4-405 5-720 48-30 87-45 118-45 23 0 40 10 51 29 122-74 282-47 360 57 61-63 131-94 210-94 198 0 297 146 297 437 0 66-17 290-15 356 2 51-43 94-94 94-66 0-99-52-99-155 0-65 14-288 14-353 0-127-35-190-104-190-57 0-102 36-133 109 23 130-10 351-9 490 1 50-44 94-94 94-66 0-99-52-99-155" id="w"/><path fill="#333" d="M432-858c231 0 331 186 331 435 0 67-21 291-19 358 2 50-44 98-94 97-161-3-83-317-83-459 0-161-47-242-140-242-73 0-130 35-171 106v447c0 100-32 150-97 150C98 34 67-4 67-80c-2-279 3-404 3-720 48-30 87-45 116-45 27 0 46 14 56 41 59-36 123-54 190-54" id="x"/><path fill="#333" d="M584-872c50 0 94 39 94 90 0 53-31 85-94 98-29 6-81 10-156 10v662c-58 31-101 46-128 46-39 0-59-22-59-65 2-210 3-252 3-645-82 0-147-4-195-12-65-109-48-182 122-181 13-1 61 4 73 4v-364c-1-48 42-89 91-89 47 0 92 41 92 89v359c43-1 96-2 157-2" id="y"/><g id="b"><use transform="matrix(0.01844618055555555,0,0,0.01844618055555555,0,0)" xlink:href="#t"/><use transform="matrix(0.01844618055555555,0,0,0.01844618055555555,19.829644097222214,0)" xlink:href="#u"/><use transform="matrix(0.01844618055555555,0,0,0.01844618055555555,34.033203124999986,0)" xlink:href="#u"/><use transform="matrix(0.01844618055555555,0,0,0.01844618055555555,48.23676215277776,0)" xlink:href="#v"/><use transform="matrix(0.01844618055555555,0,0,0.01844618055555555,64.54318576388886,0)" xlink:href="#u"/><use transform="matrix(0.01844618055555555,0,0,0.01844618055555555,78.74674479166663,0)" xlink:href="#w"/><use transform="matrix(0.01844618055555555,0,0,0.01844618055555555,100.40256076388884,0)" xlink:href="#v"/><use transform="matrix(0.01844618055555555,0,0,0.01844618055555555,116.70898437499994,0)" xlink:href="#x"/><use transform="matrix(0.01844618055555555,0,0,0.01844618055555555,131.89019097222217,0)" xlink:href="#y"/></g><path fill="#333" d="M425-862c217 0 353 210 353 439 0 240-138 457-368 457C191 34 49-155 49-377c0-243 145-485 376-485zm-9 703c111 0 169-142 169-264 0-111-61-246-162-246-123 0-184 93-184 278 0 155 59 232 177 232" id="z"/><path fill="#333" d="M510-1399c159 0 270 139 270 296 0 77-33 115-99 115-41 0-71-18-84-55-19-53-15-157-78-157-131 0-184 309-179 481 121 1 312-43 312 88 0 67-61 100-184 100-23 1-104-6-127-5 14 115 30 287 48 517-107 78-196 89-196-99 0-133-29-219-46-413l-68 2c-32-45-48-81-48-109 0-46 37-69 111-69 1-171 20-308 58-409 70-189 173-283 310-283" id="A"/><g id="c"><use transform="matrix(0.01844618055555555,0,0,0.01844618055555555,0,0)" xlink:href="#z"/><use transform="matrix(0.01844618055555555,0,0,0.01844618055555555,15.29188368055555,0)" xlink:href="#A"/></g><path fill="#333" d="M836-686c0 187-30 463 2 630-71 75-129 122-171 10-82 53-167 80-256 80C187 34 46-160 46-393c0-281 308-555 614-431 19-27 45-40 76-40 67 0 100 59 100 178zM249-382c0 105 58 213 157 213 80 0 157-36 232-109 3-73 4-181 4-326 1 1-110-58-139-48-132-6-254 139-254 270" id="B"/><path fill="#333" d="M468-848c193 0 298 180 298 385 0 53-38 94-92 94-48 0-81-25-95-75-20-75-16-213-105-213-95 0-223 127-223 222v425c-45 29-84 44-116 44-42 0-63-31-63-92 0-166-4-210-4-604 0-125 33-188 99-188 53 0 83 27 91 82 68-53 138-80 210-80" id="C"/><path fill="#333" d="M166-1145c59 0 114 47 114 107 0 55-45 110-101 110S68-983 68-1038c0-54 42-107 98-107zm102 399c0 47 1 108-5 186-18 245-2 393-31 567C152 48 64 53 63-55c-3-213 9-280 9-561 0-147 36-220 109-220 58 0 87 30 87 90" id="D"/><path fill="#333" d="M783-642c0 71 21 306 21 377 0 460-121 690-364 690-136 0-280-109-327-207-34-72 20-145 90-143 27 0 63 24 107 73C435 286 558 226 587 5 297 130 44-148 44-418c0-291 294-545 577-389 67-39 142-43 157 48 3 17 5 56 5 117zM242-423c0 121 98 257 214 257 26 0 76-21 150-63-1-66-9-190-22-372-40-39-84-59-133-59-116 0-209 122-209 237" id="E"/><g id="d"><use transform="matrix(0.01844618055555555,0,0,0.01844618055555555,0,0)" xlink:href="#A"/><use transform="matrix(0.01844618055555555,0,0,0.01844618055555555,12.856987847222218,0)" xlink:href="#B"/><use transform="matrix(0.01844618055555555,0,0,0.01844618055555555,29.55078124999999,0)" xlink:href="#C"/><use transform="matrix(0.01844618055555555,0,0,0.01844618055555555,43.90190972222221,0)" xlink:href="#w"/><use transform="matrix(0.01844618055555555,0,0,0.01844618055555555,65.55772569444443,0)" xlink:href="#D"/><use transform="matrix(0.01844618055555555,0,0,0.01844618055555555,71.92165798611109,0)" xlink:href="#x"/><use transform="matrix(0.01844618055555555,0,0,0.01844618055555555,87.1028645833333,0)" xlink:href="#E"/></g><path fill="#333" d="M693-317c70-2 127 82 85 150C718-70 552 31 404 34 201 38 40-151 44-358c4-212 146-388 302-458 115-51 232-54 316 28 45 43 73 95 84 157-37 55-72 83-106 83-41 12-94-120-135-109-108-10-258 167-258 275 0 142 52 213 157 213 43 0 97-25 163-74s108-74 126-74" id="F"/><path fill="#333" d="M671-870c56 0 110 48 95 114-60 267-147 511-266 730-21 40-51 60-89 60-55 0-100-60-145-176-55-140-136-349-235-631 42-51 79-77 112-77 23 0 45 12 57 41 49 113 132 319 211 504 69-187 119-334 150-443 24-81 61-122 110-122" id="G"/><g id="e"><use transform="matrix(0.01844618055555555,0,0,0.01844618055555555,0,0)" xlink:href="#B"/><use transform="matrix(0.01844618055555555,0,0,0.01844618055555555,16.69379340277777,0)" xlink:href="#F"/><use transform="matrix(0.01844618055555555,0,0,0.01844618055555555,32.09635416666666,0)" xlink:href="#y"/><use transform="matrix(0.01844618055555555,0,0,0.01844618055555555,44.80577256944443,0)" xlink:href="#D"/><use transform="matrix(0.01844618055555555,0,0,0.01844618055555555,51.16970486111109,0)" xlink:href="#G"/><use transform="matrix(0.01844618055555555,0,0,0.01844618055555555,66.03732638888887,0)" xlink:href="#D"/><use transform="matrix(0.01844618055555555,0,0,0.01844618055555555,72.40125868055554,0)" xlink:href="#y"/><use transform="matrix(0.01844618055555555,0,0,0.01844618055555555,85.11067708333331,0)" xlink:href="#D"/><use transform="matrix(0.01844618055555555,0,0,0.01844618055555555,91.47460937499997,0)" xlink:href="#v"/><use transform="matrix(0.01844618055555555,0,0,0.01844618055555555,107.78103298611107,0)" xlink:href="#u"/></g><path fill="#333" d="M63-220v92h138v28H63V0H30v-248h175v28H63" id="H"/><path fill="#333" d="M141-36C126-15 110 5 73 4 37 3 15-17 15-53c-1-64 63-63 125-63 3-35-9-54-41-54-24 1-41 7-42 31l-33-3c5-37 33-52 76-52 45 0 72 20 72 64v82c-1 20 7 32 28 27v20c-31 9-61-2-59-35zM48-53c0 20 12 33 32 33 41-3 63-29 60-74-43 2-92-5-92 41" id="I"/><path fill="#333" d="M114-163C36-179 61-72 57 0H25l-1-190h30c1 12-1 29 2 39 6-27 23-49 58-41v29" id="J"/><path fill="#333" d="M210-169c-67 3-38 105-44 169h-31v-121c0-29-5-50-35-48C34-165 62-65 56 0H25l-1-190h30c1 10-1 24 2 32 10-44 99-50 107 0 11-21 27-35 58-36 85-2 47 119 55 194h-31v-121c0-29-5-49-35-48" id="K"/><path fill="#333" d="M24-231v-30h32v30H24zM24 0v-190h32V0H24" id="L"/><path fill="#333" d="M117-194c89-4 53 116 60 194h-32v-121c0-31-8-49-39-48C34-167 62-67 57 0H25l-1-190h30c1 10-1 24 2 32 11-22 29-35 61-36" id="M"/><path fill="#333" d="M177-190C167-65 218 103 67 71c-23-6-38-20-44-43l32-5c15 47 100 32 89-28v-30C133-14 115 1 83 1 29 1 15-40 15-95c0-56 16-97 71-98 29-1 48 16 59 35 1-10 0-23 2-32h30zM94-22c36 0 50-32 50-73 0-42-14-75-50-75-39 0-46 34-46 75s6 73 46 73" id="N"/><g id="f"><use transform="matrix(0.08641975308641973,0,0,0.08641975308641973,0,0)" xlink:href="#H"/><use transform="matrix(0.08641975308641973,0,0,0.08641975308641973,18.92592592592592,0)" xlink:href="#I"/><use transform="matrix(0.08641975308641973,0,0,0.08641975308641973,36.209876543209866,0)" xlink:href="#J"/><use transform="matrix(0.08641975308641973,0,0,0.08641975308641973,46.493827160493815,0)" xlink:href="#K"/><use transform="matrix(0.08641975308641973,0,0,0.08641975308641973,72.33333333333331,0)" xlink:href="#L"/><use transform="matrix(0.08641975308641973,0,0,0.08641975308641973,79.16049382716048,0)" xlink:href="#M"/><use transform="matrix(0.08641975308641973,0,0,0.08641975308641973,96.44444444444443,0)" xlink:href="#N"/></g><path fill="#333" d="M96-169c-40 0-48 33-48 73s9 75 48 75c24 0 41-14 43-38l32 2c-6 37-31 61-74 61-59 0-76-41-82-99-10-93 101-131 147-64 4 7 5 14 7 22l-32 3c-4-21-16-35-41-35" id="O"/><path fill="#333" d="M59-47c-2 24 18 29 38 22v24C64 9 27 4 27-40v-127H5v-23h24l9-43h21v43h35v23H59v120" id="P"/><path fill="#333" d="M108 0H70L1-190h34L89-25l56-165h34" id="Q"/><path fill="#333" d="M100-194c63 0 86 42 84 106H49c0 40 14 67 53 68 26 1 43-12 49-29l28 8c-11 28-37 45-77 45C44 4 14-33 15-96c1-61 26-98 85-98zm52 81c6-60-76-77-97-28-3 7-6 17-6 28h103" id="R"/><path fill="#333" d="M135-143c-3-34-86-38-87 0 15 53 115 12 119 90S17 21 10-45l28-5c4 36 97 45 98 0-10-56-113-15-118-90-4-57 82-63 122-42 12 7 21 19 24 35" id="S"/><g id="g"><use transform="matrix(0.08641975308641973,0,0,0.08641975308641973,0,0)" xlink:href="#I"/><use transform="matrix(0.08641975308641973,0,0,0.08641975308641973,17.283950617283946,0)" xlink:href="#O"/><use transform="matrix(0.08641975308641973,0,0,0.08641975308641973,32.8395061728395,0)" xlink:href="#P"/><use transform="matrix(0.08641975308641973,0,0,0.08641975308641973,41.481481481481474,0)" xlink:href="#L"/><use transform="matrix(0.08641975308641973,0,0,0.08641975308641973,48.30864197530863,0)" xlink:href="#Q"/><use transform="matrix(0.08641975308641973,0,0,0.08641975308641973,63.86419753086418,0)" xlink:href="#L"/><use transform="matrix(0.08641975308641973,0,0,0.08641975308641973,70.69135802469134,0)" xlink:href="#P"/><use transform="matrix(0.08641975308641973,0,0,0.08641975308641973,79.33333333333331,0)" xlink:href="#L"/><use transform="matrix(0.08641975308641973,0,0,0.08641975308641973,86.16049382716048,0)" xlink:href="#R"/><use transform="matrix(0.08641975308641973,0,0,0.08641975308641973,103.44444444444443,0)" xlink:href="#S"/></g><path fill="#333" d="M212-179c-10-28-35-45-73-45-59 0-87 40-87 99 0 60 29 101 89 101 43 0 62-24 78-52l27 14C228-24 195 4 139 4 59 4 22-46 18-125c-6-104 99-153 187-111 19 9 31 26 39 46" id="T"/><path fill="#333" d="M100-194c62-1 85 37 85 99 1 63-27 99-86 99S16-35 15-95c0-66 28-99 85-99zM99-20c44 1 53-31 53-75 0-43-8-75-51-75s-53 32-53 75 10 74 51 75" id="U"/><path fill="#333" d="M115-194c55 1 70 41 70 98S169 2 115 4C84 4 66-9 55-30l1 105H24l-1-265h31l2 30c10-21 28-34 59-34zm-8 174c40 0 45-34 45-75s-6-73-45-74c-42 0-51 32-51 76 0 43 10 73 51 73" id="V"/><g id="h"><use transform="matrix(0.08641975308641973,0,0,0.08641975308641973,0,0)" xlink:href="#T"/><use transform="matrix(0.08641975308641973,0,0,0.08641975308641973,22.38271604938271,0)" xlink:href="#J"/><use transform="matrix(0.08641975308641973,0,0,0.08641975308641973,32.66666666666666,0)" xlink:href="#U"/><use transform="matrix(0.08641975308641973,0,0,0.08641975308641973,49.950617283950606,0)" xlink:href="#V"/><use transform="matrix(0.08641975308641973,0,0,0.08641975308641973,67.23456790123456,0)" xlink:href="#S"/></g><path fill="#333" d="M30 0v-248h33v221h125V0H30" id="W"/><g id="i"><use transform="matrix(0.08641975308641973,0,0,0.08641975308641973,0,0)" xlink:href="#W"/><use transform="matrix(0.08641975308641973,0,0,0.08641975308641973,17.283950617283946,0)" xlink:href="#I"/><use transform="matrix(0.08641975308641973,0,0,0.08641975308641973,34.56790123456789,0)" xlink:href="#J"/><use transform="matrix(0.08641975308641973,0,0,0.08641975308641973,44.85185185185184,0)" xlink:href="#N"/><use transform="matrix(0.08641975308641973,0,0,0.08641975308641973,62.13580246913578,0)" xlink:href="#R"/><use transform="matrix(0.08641975308641973,0,0,0.08641975308641973,79.41975308641973,0)" xlink:href="#S"/><use transform="matrix(0.08641975308641973,0,0,0.08641975308641973,94.97530864197529,0)" xlink:href="#P"/></g><path fill="#333" d="M24 0v-261h32V0H24" id="X"/><path fill="#333" d="M85-194c31 0 48 13 60 33l-1-100h32l1 261h-30c-2-10 0-23-3-31C134-8 116 4 85 4 32 4 16-35 15-94c0-66 23-100 70-100zm9 24c-40 0-46 34-46 75 0 40 6 74 45 74 42 0 51-32 51-76 0-42-9-74-50-73" id="Y"/><g id="j"><use transform="matrix(0.08641975308641973,0,0,0.08641975308641973,0,0)" xlink:href="#V"/><use transform="matrix(0.08641975308641973,0,0,0.08641975308641973,17.283950617283946,0)" xlink:href="#X"/><use transform="matrix(0.08641975308641973,0,0,0.08641975308641973,24.111111111111107,0)" xlink:href="#I"/><use transform="matrix(0.08641975308641973,0,0,0.08641975308641973,41.39506172839505,0)" xlink:href="#M"/><use transform="matrix(0.08641975308641973,0,0,0.08641975308641973,58.679012345679,0)" xlink:href="#P"/><use transform="matrix(0.08641975308641973,0,0,0.08641975308641973,67.32098765432097,0)" xlink:href="#R"/><use transform="matrix(0.08641975308641973,0,0,0.08641975308641973,84.60493827160492,0)" xlink:href="#Y"/></g><g id="k"><use transform="matrix(0.08641975308641973,0,0,0.08641975308641973,0,0)" xlink:href="#I"/><use transform="matrix(0.08641975308641973,0,0,0.08641975308641973,17.283950617283946,0)" xlink:href="#J"/><use transform="matrix(0.08641975308641973,0,0,0.08641975308641973,27.567901234567895,0)" xlink:href="#R"/><use transform="matrix(0.08641975308641973,0,0,0.08641975308641973,44.85185185185184,0)" xlink:href="#I"/></g><path fill="#333" d="M30-248c87 1 191-15 191 75 0 78-77 80-158 76V0H30v-248zm33 125c57 0 124 11 124-50 0-59-68-47-124-48v98" id="Z"/><path fill="#333" d="M84 4C-5 8 30-112 23-190h32v120c0 31 7 50 39 49 72-2 45-101 50-169h31l1 190h-30c-1-10 1-25-2-33-11 22-28 36-60 37" id="aa"/><path fill="#333" d="M179-190L93 31C79 59 56 82 12 73V49c39 6 53-20 64-50L1-190h34L92-34l54-156h33" id="ab"/><g id="l"><use transform="matrix(0.08641975308641973,0,0,0.08641975308641973,0,0)" xlink:href="#Z"/><use transform="matrix(0.08641975308641973,0,0,0.08641975308641973,20.740740740740737,0)" xlink:href="#U"/><use transform="matrix(0.08641975308641973,0,0,0.08641975308641973,38.02469135802468,0)" xlink:href="#aa"/><use transform="matrix(0.08641975308641973,0,0,0.08641975308641973,55.30864197530863,0)" xlink:href="#X"/><use transform="matrix(0.08641975308641973,0,0,0.08641975308641973,62.13580246913579,0)" xlink:href="#P"/><use transform="matrix(0.08641975308641973,0,0,0.08641975308641973,70.77777777777776,0)" xlink:href="#J"/><use transform="matrix(0.08641975308641973,0,0,0.08641975308641973,81.0617283950617,0)" xlink:href="#ab"/></g><path fill="#333" d="M101-234c-31-9-42 10-38 44h38v23H63V0H32v-167H5v-23h27c-7-52 17-82 69-68v24" id="ac"/><g id="m"><use transform="matrix(0.08641975308641973,0,0,0.08641975308641973,0,0)" xlink:href="#ac"/><use transform="matrix(0.08641975308641973,0,0,0.08641975308641973,8.641975308641973,0)" xlink:href="#I"/><use transform="matrix(0.08641975308641973,0,0,0.08641975308641973,25.925925925925917,0)" xlink:href="#J"/><use transform="matrix(0.08641975308641973,0,0,0.08641975308641973,36.209876543209866,0)" xlink:href="#K"/><use transform="matrix(0.08641975308641973,0,0,0.08641975308641973,62.04938271604937,0)" xlink:href="#L"/><use transform="matrix(0.08641975308641973,0,0,0.08641975308641973,68.87654320987653,0)" xlink:href="#M"/><use transform="matrix(0.08641975308641973,0,0,0.08641975308641973,86.16049382716048,0)" xlink:href="#N"/></g><g id="n"><use transform="matrix(0.08641975308641973,0,0,0.08641975308641973,0,0)" xlink:href="#H"/><use transform="matrix(0.08641975308641973,0,0,0.08641975308641973,18.92592592592592,0)" xlink:href="#U"/><use transform="matrix(0.08641975308641973,0,0,0.08641975308641973,36.209876543209866,0)" xlink:href="#J"/><use transform="matrix(0.08641975308641973,0,0,0.08641975308641973,46.493827160493815,0)" xlink:href="#R"/><use transform="matrix(0.08641975308641973,0,0,0.08641975308641973,63.77777777777776,0)" xlink:href="#S"/><use transform="matrix(0.08641975308641973,0,0,0.08641975308641973,79.33333333333331,0)" xlink:href="#P"/><use transform="matrix(0.08641975308641973,0,0,0.08641975308641973,87.97530864197529,0)" xlink:href="#J"/><use transform="matrix(0.08641975308641973,0,0,0.08641975308641973,98.25925925925924,0)" xlink:href="#ab"/></g><path fill="#333" d="M143 0L79-87 56-68V0H24v-261h32v163l83-92h37l-77 82L181 0h-38" id="ad"/><g id="o"><use transform="matrix(0.08641975308641973,0,0,0.08641975308641973,0,0)" xlink:href="#W"/><use transform="matrix(0.08641975308641973,0,0,0.08641975308641973,17.283950617283946,0)" xlink:href="#L"/><use transform="matrix(0.08641975308641973,0,0,0.08641975308641973,24.111111111111107,0)" xlink:href="#Q"/><use transform="matrix(0.08641975308641973,0,0,0.08641975308641973,39.66666666666666,0)" xlink:href="#R"/><use transform="matrix(0.08641975308641973,0,0,0.08641975308641973,56.950617283950606,0)" xlink:href="#S"/><use transform="matrix(0.08641975308641973,0,0,0.08641975308641973,72.50617283950616,0)" xlink:href="#P"/><use transform="matrix(0.08641975308641973,0,0,0.08641975308641973,81.14814814814814,0)" xlink:href="#U"/><use transform="matrix(0.08641975308641973,0,0,0.08641975308641973,98.4320987654321,0)" xlink:href="#O"/><use transform="matrix(0.08641975308641973,0,0,0.08641975308641973,113.98765432098764,0)" xlink:href="#ad"/></g><path fill="#333" d="M197 0v-115H63V0H30v-248h33v105h134v-105h34V0h-34" id="ae"/><path fill="#333" d="M106-169C34-169 62-67 57 0H25v-261h32l-1 103c12-21 28-36 61-36 89 0 53 116 60 194h-32v-121c2-32-8-49-39-48" id="af"/><g id="p"><use transform="matrix(0.08641975308641973,0,0,0.08641975308641973,0,0)" xlink:href="#ae"/><use transform="matrix(0.08641975308641973,0,0,0.08641975308641973,22.38271604938271,0)" xlink:href="#L"/><use transform="matrix(0.08641975308641973,0,0,0.08641975308641973,29.20987654320987,0)" xlink:href="#N"/><use transform="matrix(0.08641975308641973,0,0,0.08641975308641973,46.493827160493815,0)" xlink:href="#af"/></g><g id="q"><use transform="matrix(0.08641975308641973,0,0,0.08641975308641973,0,0)" xlink:href="#I"/><use transform="matrix(0.08641975308641973,0,0,0.08641975308641973,17.283950617283946,0)" xlink:href="#V"/><use transform="matrix(0.08641975308641973,0,0,0.08641975308641973,34.56790123456789,0)" xlink:href="#P"/><use transform="matrix(0.08641975308641973,0,0,0.08641975308641973,43.209876543209866,0)" xlink:href="#L"/><use transform="matrix(0.08641975308641973,0,0,0.08641975308641973,50.037037037037024,0)" xlink:href="#P"/><use transform="matrix(0.08641975308641973,0,0,0.08641975308641973,58.679012345679,0)" xlink:href="#aa"/><use transform="matrix(0.08641975308641973,0,0,0.08641975308641973,75.96296296296295,0)" xlink:href="#Y"/><use transform="matrix(0.08641975308641973,0,0,0.08641975308641973,93.2469135802469,0)" xlink:href="#R"/></g></defs></g></svg>