<svg xmlns="http://www.w3.org/2000/svg" xmlns:xlink="http://www.w3.org/1999/xlink" xmlns:lucid="lucid" width="1880" height="506"><g transform="translate(0 -360)" lucid:page-tab-id="0_0"><path d="M220 393.83a6 6 0 0 1 6-6h268a6 6 0 0 1 6 6v84.67a6 6 0 0 1-6 6H226a6 6 0 0 1-6-6z" stroke="#9391ff" stroke-width="3" fill="#edf5ff"/><use xlink:href="#a" transform="matrix(1,0,0,1,225,392.83333333333326) translate(26.96296296296299 32.20833333333333)"/><use xlink:href="#b" transform="matrix(1,0,0,1,225,392.83333333333326) translate(143.85185185185185 32.20833333333333)"/><use xlink:href="#c" transform="matrix(1,0,0,1,225,392.83333333333326) translate(173.48148148148147 32.20833333333333)"/><use xlink:href="#d" transform="matrix(1,0,0,1,225,392.83333333333326) translate(5.629629629629676 64.20833333333333)"/><use xlink:href="#e" transform="matrix(1,0,0,1,225,392.83333333333326) translate(60.29629629629633 64.20833333333333)"/><use xlink:href="#f" transform="matrix(1,0,0,1,225,392.83333333333326) translate(153.40740740740742 64.20833333333333)"/><use xlink:href="#g" transform="matrix(1,0,0,1,225,392.83333333333326) translate(197.77777777777777 64.20833333333333)"/><path d="M553.67 396.33a6 6 0 0 1 6-6h208.66a6 6 0 0 1 6 6v77.5a6 6 0 0 1-6 6H559.67a6 6 0 0 1-6-6z" stroke="#9391ff" stroke-width="3" fill="#edf5ff"/><use xlink:href="#h" transform="matrix(1,0,0,1,558.6666666666667,395.33333333333337) translate(31.500000000000014 28.833333333333332)"/><use xlink:href="#i" transform="matrix(1,0,0,1,558.6666666666667,395.33333333333337) translate(157.27777777777777 28.833333333333332)"/><use xlink:href="#j" transform="matrix(1,0,0,1,558.6666666666667,395.33333333333337) translate(12.981481481481495 60.83333333333333)"/><use xlink:href="#k" transform="matrix(1,0,0,1,558.6666666666667,395.33333333333337) translate(131.42592592592592 60.83333333333333)"/><path d="M820 406a6 6 0 0 1 6-6h130.67a6 6 0 0 1 6 6v77.5a6 6 0 0 1-6 6H826a6 6 0 0 1-6-6z" stroke="#9391ff" stroke-width="3" fill="#edf5ff"/><use xlink:href="#l" transform="matrix(1,0,0,1,825,405) translate(17.759259259259267 28.833333333333332)"/><use xlink:href="#m" transform="matrix(1,0,0,1,825,405) translate(15.500000000000014 60.83333333333333)"/><path d="M880 763.25a6 6 0 0 1 6-6h129.33a6 6 0 0 1 6 6v62a6 6 0 0 1-6 6H886a6 6 0 0 1-6-6z" stroke="#9391ff" stroke-width="3" fill="#edf5ff"/><use xlink:href="#n" transform="matrix(1,0,0,1,885,762.25) translate(38.66666666666667 25.333333333333332)"/><use xlink:href="#o" transform="matrix(1,0,0,1,885,762.25) translate(18.62962962962964 57.33333333333333)"/><path d="M620 628.83a6 6 0 0 1 6-6h88a6 6 0 0 1 6 6v57.5a6 6 0 0 1-6 6h-88a6 6 0 0 1-6-6z" stroke="#9391ff" stroke-width="3" fill="#edf5ff"/><use xlink:href="#p" transform="matrix(1,0,0,1,625,627.8332833333338) translate(9.518518518518526 36.33333333333333)"/><path d="M1020 386a6 6 0 0 1 6-6h208a6 6 0 0 1 6 6v127.33a6 6 0 0 1-6 6h-208a6 6 0 0 1-6-6z" stroke="#9391ff" stroke-width="3" fill="#edf5ff"/><use xlink:href="#q" transform="matrix(1,0,0,1,1025,385) translate(40.000000000000014 37.58333333333333)"/><use xlink:href="#r" transform="matrix(1,0,0,1,1025,385) translate(19.148148148148152 69.58333333333333)"/><use xlink:href="#s" transform="matrix(1,0,0,1,1025,385) translate(162.7037037037037 69.58333333333333)"/><use xlink:href="#t" transform="matrix(1,0,0,1,1025,385) translate(6.592592592592609 101.58333333333333)"/><use xlink:href="#u" transform="matrix(1,0,0,1,1025,385) translate(95.33333333333333 101.58333333333333)"/><use xlink:href="#v" transform="matrix(1,0,0,1,1025,385) translate(147.18518518518516 101.58333333333333)"/><path d="M502.5 436.17h31.16" stroke="#5e5e5e" stroke-width="2" fill="none"/><path d="M502.53 437.17h-1.03v-2h1.03z" stroke="#5e5e5e" stroke-width=".05" fill="#5e5e5e"/><path d="M548.93 436.17l-14.26 4.63v-9.27z" stroke="#5e5e5e" stroke-width="2" fill="#5e5e5e"/><path d="M776.83 435.08H800" stroke="#5e5e5e" stroke-width="2" fill="none"/><path d="M776.86 436.08h-1.03v-2h1.03z" stroke="#5e5e5e" stroke-width=".05" fill="#5e5e5e"/><path d="M815.26 435.08L801 439.72v-9.27z" stroke="#5e5e5e" stroke-width="2" fill="#5e5e5e"/><path d="M965.17 444.75H1000" stroke="#5e5e5e" stroke-width="2" fill="none"/><path d="M965.2 445.75h-1.03v-2h1.02z" stroke="#5e5e5e" stroke-width=".05" fill="#5e5e5e"/><path d="M1015.26 444.75l-14.26 4.63v-9.26z" stroke="#5e5e5e" stroke-width="2" fill="#5e5e5e"/><path d="M1283.33 397.04a6 6 0 0 1 6-6h268a6 6 0 0 1 6 6v108.08a6 6 0 0 1-6 6h-268a6 6 0 0 1-6-6z" stroke="#9391ff" stroke-width="3" fill="#edf5ff"/><use xlink:href="#w" transform="matrix(1,0,0,1,1288.3341336666508,396.04166666666663) translate(21.074074074074105 28.270833333333332)"/><use xlink:href="#x" transform="matrix(1,0,0,1,1288.3341336666508,396.04166666666663) translate(137.96296296296296 28.270833333333332)"/><use xlink:href="#y" transform="matrix(1,0,0,1,1288.3341336666508,396.04166666666663) translate(167.59259259259258 28.270833333333332)"/><use xlink:href="#z" transform="matrix(1,0,0,1,1288.3341336666508,396.04166666666663) translate(3.4814814814815236 60.27083333333333)"/><use xlink:href="#A" transform="matrix(1,0,0,1,1288.3341336666508,396.04166666666663) translate(58.14814814814818 60.27083333333333)"/><use xlink:href="#B" transform="matrix(1,0,0,1,1288.3341336666508,396.04166666666663) translate(139.4814814814815 60.27083333333333)"/><use xlink:href="#C" transform="matrix(1,0,0,1,1288.3341336666508,396.04166666666663) translate(89.11111111111111 92.27083333333333)"/><use xlink:href="#v" transform="matrix(1,0,0,1,1288.3341336666508,396.04166666666663) translate(124.66666666666666 92.27083333333333)"/><path d="M1241 449.67h22.33M1241.03 449.67H1240" stroke="#5e5e5e" stroke-width="2" fill="none"/><path d="M1278.6 449.67l-14.27 4.63v-9.27z" stroke="#5e5e5e" stroke-width="2" fill="#5e5e5e"/><path d="M1608.17 406a6 6 0 0 1 6-6H1854a6 6 0 0 1 6 6v90.17a6 6 0 0 1-6 6h-239.83a6 6 0 0 1-6-6z" stroke="#9391ff" stroke-width="3" fill="#edf5ff"/><use xlink:href="#D" transform="matrix(1,0,0,1,1613.1665958333365,405) translate(27.851851851851862 35.86458333333333)"/><use xlink:href="#E" transform="matrix(1,0,0,1,1613.1665958333365,405) translate(191.92592592592592 35.86458333333333)"/><use xlink:href="#F" transform="matrix(1,0,0,1,1613.1665958333365,405) translate(10.07407407407409 67.86458333333333)"/><use xlink:href="#C" transform="matrix(1,0,0,1,1613.1665958333365,405) translate(95.85185185185185 67.86458333333333)"/><use xlink:href="#G" transform="matrix(1,0,0,1,1613.1665958333365,405) translate(131.4074074074074 67.86458333333333)"/><path d="M1565.83 451.08h22.34" stroke="#5e5e5e" stroke-width="2" fill="none"/><path d="M1565.86 452.08h-1.03v-2h1.03z" stroke="#5e5e5e" stroke-width=".05" fill="#5e5e5e"/><path d="M1603.43 451.08l-14.27 4.64v-9.27z" stroke="#5e5e5e" stroke-width="2" fill="#5e5e5e"/><path d="M1640 556.83a6 6 0 0 1 6-6h108a6 6 0 0 1 6 6v29.84a6 6 0 0 1-6 6h-108a6 6 0 0 1-6-6z" stroke="#9391ff" stroke-width="3" fill="#edf5ff"/><use xlink:href="#H" transform="matrix(1,0,0,1,1645,555.8333333333334) translate(30.592592592592595 23.333333333333332)"/><path d="M1646.67 626a6 6 0 0 1 6-6h108a6 6 0 0 1 6 6v40.33a6 6 0 0 1-6 6h-108a6 6 0 0 1-6-6z" stroke="#9391ff" stroke-width="3" fill="#edf5ff"/><use xlink:href="#I" transform="matrix(1,0,0,1,1651.6666666666665,625) translate(7.7037037037037095 26.708333333333332)"/><path d="M1734.08 504.67v17.5a6 6 0 0 1-6 6H1606a6 6 0 0 0-6 6V783.5a6 6 0 0 0 6 6h20.66" stroke="#5e5e5e" stroke-width="2" fill="none"/><path d="M1735.08 504.7h-2v-1.03h2z" stroke="#5e5e5e" stroke-width=".05" fill="#5e5e5e"/><path d="M1641.93 789.5l-14.27 4.63v-9.26z" stroke="#5e5e5e" stroke-width="2" fill="#5e5e5e"/><path d="M1646.67 705.42a6 6 0 0 1 6-6h108a6 6 0 0 1 6 6v30a6 6 0 0 1-6 6h-108a6 6 0 0 1-6-6z" stroke="#9391ff" stroke-width="3" fill="#edf5ff"/><use xlink:href="#J" transform="matrix(1,0,0,1,1651.6666666666665,704.4166416666669) translate(27.66666666666667 23.333333333333332)"/><path d="M1646.67 774.5a6 6 0 0 1 6-6h128a6 6 0 0 1 6 6v30a6 6 0 0 1-6 6h-128a6 6 0 0 1-6-6z" stroke="#9391ff" stroke-width="3" fill="#edf5ff"/><use xlink:href="#K" transform="matrix(1,0,0,1,1651.6666666666665,773.5) translate(9.518518518518526 23.333333333333332)"/><use xlink:href="#L" transform="matrix(1,0,0,1,1651.6666666666665,773.5) translate(70.18518518518519 23.333333333333332)"/><path d="M1601 572.23h19M1601.03 572.23H1600" stroke="#5e5e5e" stroke-width="2" fill="none"/><path d="M1635.26 572.23l-14.26 4.64v-9.27z" stroke="#5e5e5e" stroke-width="2" fill="#5e5e5e"/><path d="M1601 638.78h25.66M1601.03 638.78H1600" stroke="#5e5e5e" stroke-width="2" fill="none"/><path d="M1641.93 638.78l-14.27 4.64v-9.27z" stroke="#5e5e5e" stroke-width="2" fill="#5e5e5e"/><path d="M1601 713.43h25.66M1601.03 713.43H1600" stroke="#5e5e5e" stroke-width="2" fill="none"/><path d="M1641.93 713.43l-14.27 4.63v-9.27z" stroke="#5e5e5e" stroke-width="2" fill="#5e5e5e"/><path d="M20 389.5a6 6 0 0 1 6-6h130.67a6 6 0 0 1 6 6v94a6 6 0 0 1-6 6H26a6 6 0 0 1-6-6z" stroke="#9391ff" stroke-width="3" fill="#edf5ff"/><use xlink:href="#M" transform="matrix(1,0,0,1,25,388.5) translate(19.722222222222236 24.333333333333332)"/><use xlink:href="#N" transform="matrix(1,0,0,1,25,388.5) translate(11.018518518518526 56.33333333333333)"/><use xlink:href="#O" transform="matrix(1,0,0,1,25,388.5) translate(55.38888888888889 56.33333333333333)"/><use xlink:href="#P" transform="matrix(1,0,0,1,25,388.5) translate(37.68518518518519 88.33333333333333)"/><path d="M165.17 436.17H200" stroke="#5e5e5e" stroke-width="2" fill="none"/><path d="M165.2 437.17h-1.03v-2h1.02z" stroke="#5e5e5e" stroke-width=".05" fill="#5e5e5e"/><path d="M215.26 436.17L201 440.8v-9.27z" stroke="#5e5e5e" stroke-width="2" fill="#5e5e5e"/><path d="M891.33 492v58.17a6 6 0 0 1-6 6H676a6 6 0 0 0-6 6v40.66" stroke="#5e5e5e" stroke-width="2" fill="none"/><path d="M892.33 492.03h-2V491h2z" stroke="#5e5e5e" stroke-width=".05" fill="#5e5e5e"/><path d="M670 618.1l-4.63-14.27h9.26z" stroke="#5e5e5e" stroke-width="2" fill="#5e5e5e"/><path d="M740 628.83a6 6 0 0 1 6-6h108a6 6 0 0 1 6 6v57.5a6 6 0 0 1-6 6H746a6 6 0 0 1-6-6z" stroke="#9391ff" stroke-width="3" fill="#edf5ff"/><g><use xlink:href="#Q" transform="matrix(1,0,0,1,745,627.8332833333338) translate(6.222222222222236 36.33333333333333)"/></g><path d="M880 628.83a6 6 0 0 1 6-6h128a6 6 0 0 1 6 6v57.5a6 6 0 0 1-6 6H886a6 6 0 0 1-6-6z" stroke="#9391ff" stroke-width="3" fill="#edf5ff"/><g><use xlink:href="#R" transform="matrix(1,0,0,1,885,627.8332833333338) translate(9.481481481481495 36.33333333333333)"/></g><path d="M1040 626a6 6 0 0 1 6-6h115.33a6 6 0 0 1 6 6v62a6 6 0 0 1-6 6H1046a6 6 0 0 1-6-6z" stroke="#9391ff" stroke-width="3" fill="#edf5ff"/><g><use xlink:href="#S" transform="matrix(1,0,0,1,1045,625) translate(17.592592592592602 25.333333333333332)"/><use xlink:href="#T" transform="matrix(1,0,0,1,1045,625) translate(14.666666666666671 57.33333333333333)"/></g><path d="M891.33 492v56.75a6 6 0 0 0 6 6h200.34a6 6 0 0 1 6 6V600" stroke="#5e5e5e" stroke-width="2" fill="none"/><path d="M892.33 492.03h-2V491h2z" stroke="#5e5e5e" stroke-width=".05" fill="#5e5e5e"/><path d="M1103.67 615.26l-4.64-14.26h9.27z" stroke="#5e5e5e" stroke-width="2" fill="#5e5e5e"/><path d="M948 555.75v47.08M948 555.78v-1.03" stroke="#5e5e5e" stroke-width="2" fill="none"/><path d="M948 618.1l-4.63-14.27h9.26z" stroke="#5e5e5e" stroke-width="2" fill="#5e5e5e"/><path d="M800 557.17v45.66M800 557.2v-1.03" stroke="#5e5e5e" stroke-width="2" fill="none"/><path d="M800 618.1l-4.63-14.27h9.26z" stroke="#5e5e5e" stroke-width="2" fill="#5e5e5e"/><path d="M800 694.83v93.42a6 6 0 0 0 6 6h54" stroke="#5e5e5e" stroke-width="2" fill="none"/><path d="M801 694.86h-2v-1.03h2z" stroke="#5e5e5e" stroke-width=".05" fill="#5e5e5e"/><path d="M875.26 794.25L861 798.88v-9.26z" stroke="#5e5e5e" stroke-width="2" fill="#5e5e5e"/><path d="M1103.67 696.5v91.75a6 6 0 0 1-6 6h-56.34" stroke="#5e5e5e" stroke-width="2" fill="none"/><path d="M1104.67 696.53h-2v-1.03h2z" stroke="#5e5e5e" stroke-width=".05" fill="#5e5e5e"/><path d="M1026.07 794.25l14.27-4.63v9.26z" stroke="#5e5e5e" stroke-width="2" fill="#5e5e5e"/><path d="M951.33 694.83v42.41" stroke="#5e5e5e" stroke-width="2" fill="none"/><path d="M952.33 694.86h-2v-1.03h2z" stroke="#5e5e5e" stroke-width=".05" fill="#5e5e5e"/><path d="M951.34 752.5l-4.64-14.25h9.27z" stroke="#5e5e5e" stroke-width="2" fill="#5e5e5e"/><path d="M600 746a6 6 0 0 1 6-6h129.33a6 6 0 0 1 6 6v94a6 6 0 0 1-6 6H606a6 6 0 0 1-6-6z" stroke="#9391ff" stroke-width="3" fill="#edf5ff"/><g><use xlink:href="#U" transform="matrix(1,0,0,1,605,745) translate(21.592592592592602 24.333333333333332)"/><use xlink:href="#V" transform="matrix(1,0,0,1,605,745) translate(22.333333333333343 56.33333333333333)"/><use xlink:href="#W" transform="matrix(1,0,0,1,605,745) translate(39.370370370370374 88.33333333333333)"/></g><path d="M670 694.83V720" stroke="#5e5e5e" stroke-width="2" fill="none"/><path d="M671 694.86h-2v-1.03h2z" stroke="#5e5e5e" stroke-width=".05" fill="#5e5e5e"/><path d="M670 735.26L665.37 721h9.26z" stroke="#5e5e5e" stroke-width="2" fill="#5e5e5e"/><defs><path d="M185-189c-5-48-123-54-124 2 14 75 158 14 163 119 3 78-121 87-175 55-17-10-28-26-33-46l33-7c5 56 141 63 141-1 0-78-155-14-162-118-5-82 145-84 179-34 5 7 8 16 11 25" id="X"/><path d="M100-194c63 0 86 42 84 106H49c0 40 14 67 53 68 26 1 43-12 49-29l28 8c-11 28-37 45-77 45C44 4 14-33 15-96c1-61 26-98 85-98zm52 81c6-60-76-77-97-28-3 7-6 17-6 28h103" id="Y"/><path d="M24 0v-261h32V0H24" id="Z"/><path d="M96-169c-40 0-48 33-48 73s9 75 48 75c24 0 41-14 43-38l32 2c-6 37-31 61-74 61-59 0-76-41-82-99-10-93 101-131 147-64 4 7 5 14 7 22l-32 3c-4-21-16-35-41-35" id="aa"/><path d="M59-47c-2 24 18 29 38 22v24C64 9 27 4 27-40v-127H5v-23h24l9-43h21v43h35v23H59v120" id="ab"/><path d="M24-231v-30h32v30H24zM24 0v-190h32V0H24" id="ac"/><path d="M100-194c62-1 85 37 85 99 1 63-27 99-86 99S16-35 15-95c0-66 28-99 85-99zM99-20c44 1 53-31 53-75 0-43-8-75-51-75s-53 32-53 75 10 74 51 75" id="ad"/><path d="M117-194c89-4 53 116 60 194h-32v-121c0-31-8-49-39-48C34-167 62-67 57 0H25l-1-190h30c1 10-1 24 2 32 11-22 29-35 61-36" id="ae"/><g id="a"><use transform="matrix(0.07407407407407407,0,0,0.07407407407407407,0,0)" xlink:href="#X"/><use transform="matrix(0.07407407407407407,0,0,0.07407407407407407,17.77777777777778,0)" xlink:href="#Y"/><use transform="matrix(0.07407407407407407,0,0,0.07407407407407407,32.592592592592595,0)" xlink:href="#Z"/><use transform="matrix(0.07407407407407407,0,0,0.07407407407407407,38.44444444444444,0)" xlink:href="#Y"/><use transform="matrix(0.07407407407407407,0,0,0.07407407407407407,53.25925925925926,0)" xlink:href="#aa"/><use transform="matrix(0.07407407407407407,0,0,0.07407407407407407,66.59259259259258,0)" xlink:href="#ab"/><use transform="matrix(0.07407407407407407,0,0,0.07407407407407407,73.99999999999999,0)" xlink:href="#ac"/><use transform="matrix(0.07407407407407407,0,0,0.07407407407407407,79.85185185185183,0)" xlink:href="#ad"/><use transform="matrix(0.07407407407407407,0,0,0.07407407407407407,94.66666666666664,0)" xlink:href="#ae"/></g><path d="M101-234c-31-9-42 10-38 44h38v23H63V0H32v-167H5v-23h27c-7-52 17-82 69-68v24" id="af"/><g id="b"><use transform="matrix(0.07407407407407407,0,0,0.07407407407407407,0,0)" xlink:href="#ad"/><use transform="matrix(0.07407407407407407,0,0,0.07407407407407407,14.814814814814813,0)" xlink:href="#af"/></g><path d="M206 0h-36l-40-164L89 0H53L-1-190h32L70-26l43-164h34l41 164 42-164h31" id="ag"/><path d="M135-143c-3-34-86-38-87 0 15 53 115 12 119 90S17 21 10-45l28-5c4 36 97 45 98 0-10-56-113-15-118-90-4-57 82-63 122-42 12 7 21 19 24 35" id="ah"/><g id="c"><use transform="matrix(0.07407407407407407,0,0,0.07407407407407407,0,0)" xlink:href="#ab"/><use transform="matrix(0.07407407407407407,0,0,0.07407407407407407,7.4074074074074066,0)" xlink:href="#ad"/><use transform="matrix(0.07407407407407407,0,0,0.07407407407407407,22.22222222222222,0)" xlink:href="#ag"/><use transform="matrix(0.07407407407407407,0,0,0.07407407407407407,41.407407407407405,0)" xlink:href="#ae"/><use transform="matrix(0.07407407407407407,0,0,0.07407407407407407,56.22222222222221,0)" xlink:href="#ah"/></g><path d="M106-169C34-169 62-67 57 0H25v-261h32l-1 103c12-21 28-36 61-36 89 0 53 116 60 194h-32v-121c2-32-8-49-39-48" id="ai"/><g id="d"><use transform="matrix(0.07407407407407407,0,0,0.07407407407407407,0,0)" xlink:href="#ag"/><use transform="matrix(0.07407407407407407,0,0,0.07407407407407407,19.185185185185183,0)" xlink:href="#ac"/><use transform="matrix(0.07407407407407407,0,0,0.07407407407407407,25.037037037037035,0)" xlink:href="#ab"/><use transform="matrix(0.07407407407407407,0,0,0.07407407407407407,32.44444444444444,0)" xlink:href="#ai"/></g><path d="M114-163C36-179 61-72 57 0H25l-1-190h30c1 12-1 29 2 39 6-27 23-49 58-41v29" id="aj"/><path d="M115-194c55 1 70 41 70 98S169 2 115 4C84 4 66-9 55-30l1 105H24l-1-265h31l2 30c10-21 28-34 59-34zm-8 174c40 0 45-34 45-75s-6-73-45-74c-42 0-51 32-51 76 0 43 10 73 51 73" id="ak"/><path d="M141-36C126-15 110 5 73 4 37 3 15-17 15-53c-1-64 63-63 125-63 3-35-9-54-41-54-24 1-41 7-42 31l-33-3c5-37 33-52 76-52 45 0 72 20 72 64v82c-1 20 7 32 28 27v20c-31 9-61-2-59-35zM48-53c0 20 12 33 32 33 41-3 63-29 60-74-43 2-92-5-92 41" id="al"/><g id="e"><use transform="matrix(0.07407407407407407,0,0,0.07407407407407407,0,0)" xlink:href="#ab"/><use transform="matrix(0.07407407407407407,0,0,0.07407407407407407,7.4074074074074066,0)" xlink:href="#aj"/><use transform="matrix(0.07407407407407407,0,0,0.07407407407407407,16.22222222222222,0)" xlink:href="#ad"/><use transform="matrix(0.07407407407407407,0,0,0.07407407407407407,31.037037037037035,0)" xlink:href="#ak"/><use transform="matrix(0.07407407407407407,0,0,0.07407407407407407,45.85185185185185,0)" xlink:href="#ac"/><use transform="matrix(0.07407407407407407,0,0,0.07407407407407407,51.703703703703695,0)" xlink:href="#aa"/><use transform="matrix(0.07407407407407407,0,0,0.07407407407407407,65.03703703703702,0)" xlink:href="#al"/><use transform="matrix(0.07407407407407407,0,0,0.07407407407407407,79.85185185185183,0)" xlink:href="#Z"/></g><path d="M85-194c31 0 48 13 60 33l-1-100h32l1 261h-30c-2-10 0-23-3-31C134-8 116 4 85 4 32 4 16-35 15-94c0-66 23-100 70-100zm9 24c-40 0-46 34-46 75 0 40 6 74 45 74 42 0 51-32 51-76 0-42-9-74-50-73" id="am"/><path d="M179-190L93 31C79 59 56 82 12 73V49c39 6 53-20 64-50L1-190h34L92-34l54-156h33" id="an"/><g id="f"><use transform="matrix(0.07407407407407407,0,0,0.07407407407407407,0,0)" xlink:href="#am"/><use transform="matrix(0.07407407407407407,0,0,0.07407407407407407,14.814814814814813,0)" xlink:href="#aj"/><use transform="matrix(0.07407407407407407,0,0,0.07407407407407407,23.629629629629623,0)" xlink:href="#an"/></g><g id="g"><use transform="matrix(0.07407407407407407,0,0,0.07407407407407407,0,0)" xlink:href="#af"/><use transform="matrix(0.07407407407407407,0,0,0.07407407407407407,7.4074074074074066,0)" xlink:href="#ad"/><use transform="matrix(0.07407407407407407,0,0,0.07407407407407407,22.22222222222222,0)" xlink:href="#aj"/><use transform="matrix(0.07407407407407407,0,0,0.07407407407407407,31.037037037037038,0)" xlink:href="#Y"/><use transform="matrix(0.07407407407407407,0,0,0.07407407407407407,45.85185185185185,0)" xlink:href="#ah"/><use transform="matrix(0.07407407407407407,0,0,0.07407407407407407,59.185185185185176,0)" xlink:href="#ab"/></g><path fill="#333" d="M30 0v-248h187v28H63v79h144v27H63v87h162V0H30" id="ao"/><path fill="#333" d="M141 0L90-78 38 0H4l68-98-65-92h35l48 74 47-74h35l-64 92 68 98h-35" id="ap"/><path fill="#333" d="M59-47c-2 24 18 29 38 22v24C64 9 27 4 27-40v-127H5v-23h24l9-43h21v43h35v23H59v120" id="aq"/><path fill="#333" d="M114-163C36-179 61-72 57 0H25l-1-190h30c1 12-1 29 2 39 6-27 23-49 58-41v29" id="ar"/><path fill="#333" d="M141-36C126-15 110 5 73 4 37 3 15-17 15-53c-1-64 63-63 125-63 3-35-9-54-41-54-24 1-41 7-42 31l-33-3c5-37 33-52 76-52 45 0 72 20 72 64v82c-1 20 7 32 28 27v20c-31 9-61-2-59-35zM48-53c0 20 12 33 32 33 41-3 63-29 60-74-43 2-92-5-92 41" id="as"/><path fill="#333" d="M96-169c-40 0-48 33-48 73s9 75 48 75c24 0 41-14 43-38l32 2c-6 37-31 61-74 61-59 0-76-41-82-99-10-93 101-131 147-64 4 7 5 14 7 22l-32 3c-4-21-16-35-41-35" id="at"/><path fill="#333" d="M24-231v-30h32v30H24zM24 0v-190h32V0H24" id="au"/><path fill="#333" d="M100-194c62-1 85 37 85 99 1 63-27 99-86 99S16-35 15-95c0-66 28-99 85-99zM99-20c44 1 53-31 53-75 0-43-8-75-51-75s-53 32-53 75 10 74 51 75" id="av"/><path fill="#333" d="M117-194c89-4 53 116 60 194h-32v-121c0-31-8-49-39-48C34-167 62-67 57 0H25l-1-190h30c1 10-1 24 2 32 11-22 29-35 61-36" id="aw"/><g id="h"><use transform="matrix(0.07407407407407407,0,0,0.07407407407407407,0,0)" xlink:href="#ao"/><use transform="matrix(0.07407407407407407,0,0,0.07407407407407407,17.77777777777778,0)" xlink:href="#ap"/><use transform="matrix(0.07407407407407407,0,0,0.07407407407407407,31.11111111111111,0)" xlink:href="#aq"/><use transform="matrix(0.07407407407407407,0,0,0.07407407407407407,38.51851851851852,0)" xlink:href="#ar"/><use transform="matrix(0.07407407407407407,0,0,0.07407407407407407,47.333333333333336,0)" xlink:href="#as"/><use transform="matrix(0.07407407407407407,0,0,0.07407407407407407,62.14814814814815,0)" xlink:href="#at"/><use transform="matrix(0.07407407407407407,0,0,0.07407407407407407,75.48148148148148,0)" xlink:href="#aq"/><use transform="matrix(0.07407407407407407,0,0,0.07407407407407407,82.88888888888889,0)" xlink:href="#au"/><use transform="matrix(0.07407407407407407,0,0,0.07407407407407407,88.74074074074073,0)" xlink:href="#av"/><use transform="matrix(0.07407407407407407,0,0,0.07407407407407407,103.55555555555554,0)" xlink:href="#aw"/></g><path fill="#333" d="M101-234c-31-9-42 10-38 44h38v23H63V0H32v-167H5v-23h27c-7-52 17-82 69-68v24" id="ax"/><g id="i"><use transform="matrix(0.07407407407407407,0,0,0.07407407407407407,0,0)" xlink:href="#av"/><use transform="matrix(0.07407407407407407,0,0,0.07407407407407407,14.814814814814813,0)" xlink:href="#ax"/></g><path fill="#333" d="M115-194c55 1 70 41 70 98S169 2 115 4C84 4 66-9 55-30l1 105H24l-1-265h31l2 30c10-21 28-34 59-34zm-8 174c40 0 45-34 45-75s-6-73-45-74c-42 0-51 32-51 76 0 43 10 73 51 73" id="ay"/><path fill="#333" d="M100-194c63 0 86 42 84 106H49c0 40 14 67 53 68 26 1 43-12 49-29l28 8c-11 28-37 45-77 45C44 4 14-33 15-96c1-61 26-98 85-98zm52 81c6-60-76-77-97-28-3 7-6 17-6 28h103" id="az"/><path fill="#333" d="M85-194c31 0 48 13 60 33l-1-100h32l1 261h-30c-2-10 0-23-3-31C134-8 116 4 85 4 32 4 16-35 15-94c0-66 23-100 70-100zm9 24c-40 0-46 34-46 75 0 40 6 74 45 74 42 0 51-32 51-76 0-42-9-74-50-73" id="aA"/><g id="j"><use transform="matrix(0.07407407407407407,0,0,0.07407407407407407,0,0)" xlink:href="#ay"/><use transform="matrix(0.07407407407407407,0,0,0.07407407407407407,14.814814814814813,0)" xlink:href="#ar"/><use transform="matrix(0.07407407407407407,0,0,0.07407407407407407,23.629629629629623,0)" xlink:href="#av"/><use transform="matrix(0.07407407407407407,0,0,0.07407407407407407,38.44444444444444,0)" xlink:href="#aq"/><use transform="matrix(0.07407407407407407,0,0,0.07407407407407407,45.85185185185185,0)" xlink:href="#az"/><use transform="matrix(0.07407407407407407,0,0,0.07407407407407407,60.66666666666666,0)" xlink:href="#at"/><use transform="matrix(0.07407407407407407,0,0,0.07407407407407407,73.99999999999999,0)" xlink:href="#aq"/><use transform="matrix(0.07407407407407407,0,0,0.07407407407407407,81.40740740740739,0)" xlink:href="#az"/><use transform="matrix(0.07407407407407407,0,0,0.07407407407407407,96.2222222222222,0)" xlink:href="#aA"/></g><path fill="#333" d="M135-143c-3-34-86-38-87 0 15 53 115 12 119 90S17 21 10-45l28-5c4 36 97 45 98 0-10-56-113-15-118-90-4-57 82-63 122-42 12 7 21 19 24 35" id="aB"/><g id="k"><use transform="matrix(0.07407407407407407,0,0,0.07407407407407407,0,0)" xlink:href="#as"/><use transform="matrix(0.07407407407407407,0,0,0.07407407407407407,14.814814814814813,0)" xlink:href="#ar"/><use transform="matrix(0.07407407407407407,0,0,0.07407407407407407,23.629629629629623,0)" xlink:href="#az"/><use transform="matrix(0.07407407407407407,0,0,0.07407407407407407,38.44444444444444,0)" xlink:href="#as"/><use transform="matrix(0.07407407407407407,0,0,0.07407407407407407,53.25925925925926,0)" xlink:href="#aB"/></g><path fill="#333" d="M63-220v92h138v28H63V0H30v-248h175v28H63" id="aC"/><path fill="#333" d="M210-169c-67 3-38 105-44 169h-31v-121c0-29-5-50-35-48C34-165 62-65 56 0H25l-1-190h30c1 10-1 24 2 32 10-44 99-50 107 0 11-21 27-35 58-36 85-2 47 119 55 194h-31v-121c0-29-5-49-35-48" id="aD"/><path fill="#333" d="M177-190C167-65 218 103 67 71c-23-6-38-20-44-43l32-5c15 47 100 32 89-28v-30C133-14 115 1 83 1 29 1 15-40 15-95c0-56 16-97 71-98 29-1 48 16 59 35 1-10 0-23 2-32h30zM94-22c36 0 50-32 50-73 0-42-14-75-50-75-39 0-46 34-46 75s6 73 46 73" id="aE"/><g id="l"><use transform="matrix(0.07407407407407407,0,0,0.07407407407407407,0,0)" xlink:href="#aC"/><use transform="matrix(0.07407407407407407,0,0,0.07407407407407407,16.22222222222222,0)" xlink:href="#as"/><use transform="matrix(0.07407407407407407,0,0,0.07407407407407407,31.037037037037035,0)" xlink:href="#ar"/><use transform="matrix(0.07407407407407407,0,0,0.07407407407407407,39.85185185185185,0)" xlink:href="#aD"/><use transform="matrix(0.07407407407407407,0,0,0.07407407407407407,62,0)" xlink:href="#au"/><use transform="matrix(0.07407407407407407,0,0,0.07407407407407407,67.85185185185185,0)" xlink:href="#aw"/><use transform="matrix(0.07407407407407407,0,0,0.07407407407407407,82.66666666666666,0)" xlink:href="#aE"/></g><path fill="#333" d="M108 0H70L1-190h34L89-25l56-165h34" id="aF"/><g id="m"><use transform="matrix(0.07407407407407407,0,0,0.07407407407407407,0,0)" xlink:href="#as"/><use transform="matrix(0.07407407407407407,0,0,0.07407407407407407,14.814814814814813,0)" xlink:href="#at"/><use transform="matrix(0.07407407407407407,0,0,0.07407407407407407,28.148148148148145,0)" xlink:href="#aq"/><use transform="matrix(0.07407407407407407,0,0,0.07407407407407407,35.55555555555555,0)" xlink:href="#au"/><use transform="matrix(0.07407407407407407,0,0,0.07407407407407407,41.407407407407405,0)" xlink:href="#aF"/><use transform="matrix(0.07407407407407407,0,0,0.07407407407407407,54.740740740740726,0)" xlink:href="#au"/><use transform="matrix(0.07407407407407407,0,0,0.07407407407407407,60.59259259259258,0)" xlink:href="#aq"/><use transform="matrix(0.07407407407407407,0,0,0.07407407407407407,67.99999999999999,0)" xlink:href="#au"/><use transform="matrix(0.07407407407407407,0,0,0.07407407407407407,73.85185185185183,0)" xlink:href="#az"/><use transform="matrix(0.07407407407407407,0,0,0.07407407407407407,88.66666666666664,0)" xlink:href="#aB"/></g><path fill="#333" d="M197 0v-115H63V0H30v-248h33v105h134v-105h34V0h-34" id="aG"/><path fill="#333" d="M106-169C34-169 62-67 57 0H25v-261h32l-1 103c12-21 28-36 61-36 89 0 53 116 60 194h-32v-121c2-32-8-49-39-48" id="aH"/><g id="n"><use transform="matrix(0.07407407407407407,0,0,0.07407407407407407,0,0)" xlink:href="#aG"/><use transform="matrix(0.07407407407407407,0,0,0.07407407407407407,19.185185185185183,0)" xlink:href="#au"/><use transform="matrix(0.07407407407407407,0,0,0.07407407407407407,25.037037037037035,0)" xlink:href="#aE"/><use transform="matrix(0.07407407407407407,0,0,0.07407407407407407,39.85185185185185,0)" xlink:href="#aH"/></g><path fill="#333" d="M84 4C-5 8 30-112 23-190h32v120c0 31 7 50 39 49 72-2 45-101 50-169h31l1 190h-30c-1-10 1-25-2-33-11 22-28 36-60 37" id="aI"/><g id="o"><use transform="matrix(0.07407407407407407,0,0,0.07407407407407407,0,0)" xlink:href="#as"/><use transform="matrix(0.07407407407407407,0,0,0.07407407407407407,14.814814814814813,0)" xlink:href="#ay"/><use transform="matrix(0.07407407407407407,0,0,0.07407407407407407,29.629629629629626,0)" xlink:href="#aq"/><use transform="matrix(0.07407407407407407,0,0,0.07407407407407407,37.03703703703703,0)" xlink:href="#au"/><use transform="matrix(0.07407407407407407,0,0,0.07407407407407407,42.888888888888886,0)" xlink:href="#aq"/><use transform="matrix(0.07407407407407407,0,0,0.07407407407407407,50.29629629629629,0)" xlink:href="#aI"/><use transform="matrix(0.07407407407407407,0,0,0.07407407407407407,65.1111111111111,0)" xlink:href="#aA"/><use transform="matrix(0.07407407407407407,0,0,0.07407407407407407,79.92592592592591,0)" xlink:href="#az"/></g><path fill="#333" d="M212-179c-10-28-35-45-73-45-59 0-87 40-87 99 0 60 29 101 89 101 43 0 62-24 78-52l27 14C228-24 195 4 139 4 59 4 22-46 18-125c-6-104 99-153 187-111 19 9 31 26 39 46" id="aJ"/><g id="p"><use transform="matrix(0.07407407407407407,0,0,0.07407407407407407,0,0)" xlink:href="#aJ"/><use transform="matrix(0.07407407407407407,0,0,0.07407407407407407,19.185185185185183,0)" xlink:href="#ar"/><use transform="matrix(0.07407407407407407,0,0,0.07407407407407407,28,0)" xlink:href="#av"/><use transform="matrix(0.07407407407407407,0,0,0.07407407407407407,42.81481481481481,0)" xlink:href="#ay"/><use transform="matrix(0.07407407407407407,0,0,0.07407407407407407,57.62962962962962,0)" xlink:href="#aB"/></g><path fill="#333" d="M30-248c87 1 191-15 191 75 0 78-77 80-158 76V0H30v-248zm33 125c57 0 124 11 124-50 0-59-68-47-124-48v98" id="aK"/><path fill="#333" d="M115-194c53 0 69 39 70 98 0 66-23 100-70 100C84 3 66-7 56-30L54 0H23l1-261h32v101c10-23 28-34 59-34zm-8 174c40 0 45-34 45-75 0-40-5-75-45-74-42 0-51 32-51 76 0 43 10 73 51 73" id="aL"/><path fill="#333" d="M24 0v-261h32V0H24" id="aM"/><path fill="#333" d="M179-190L93 31C79 59 56 82 12 73V49c39 6 53-20 64-50L1-190h34L92-34l54-156h33" id="aN"/><g id="q"><use transform="matrix(0.07407407407407407,0,0,0.07407407407407407,0,0)" xlink:href="#aK"/><use transform="matrix(0.07407407407407407,0,0,0.07407407407407407,17.77777777777778,0)" xlink:href="#ar"/><use transform="matrix(0.07407407407407407,0,0,0.07407407407407407,26.592592592592595,0)" xlink:href="#av"/><use transform="matrix(0.07407407407407407,0,0,0.07407407407407407,41.407407407407405,0)" xlink:href="#ax"/><use transform="matrix(0.07407407407407407,0,0,0.07407407407407407,48.81481481481481,0)" xlink:href="#au"/><use transform="matrix(0.07407407407407407,0,0,0.07407407407407407,54.66666666666666,0)" xlink:href="#aq"/><use transform="matrix(0.07407407407407407,0,0,0.07407407407407407,62.07407407407406,0)" xlink:href="#as"/><use transform="matrix(0.07407407407407407,0,0,0.07407407407407407,76.88888888888887,0)" xlink:href="#aL"/><use transform="matrix(0.07407407407407407,0,0,0.07407407407407407,91.70370370370368,0)" xlink:href="#au"/><use transform="matrix(0.07407407407407407,0,0,0.07407407407407407,97.55555555555553,0)" xlink:href="#aM"/><use transform="matrix(0.07407407407407407,0,0,0.07407407407407407,103.40740740740736,0)" xlink:href="#au"/><use transform="matrix(0.07407407407407407,0,0,0.07407407407407407,109.25925925925922,0)" xlink:href="#aq"/><use transform="matrix(0.07407407407407407,0,0,0.07407407407407407,116.66666666666663,0)" xlink:href="#aN"/></g><g id="r"><use transform="matrix(0.07407407407407407,0,0,0.07407407407407407,0,0)" xlink:href="#as"/><use transform="matrix(0.07407407407407407,0,0,0.07407407407407407,14.814814814814813,0)" xlink:href="#aB"/><use transform="matrix(0.07407407407407407,0,0,0.07407407407407407,28.148148148148145,0)" xlink:href="#aB"/><use transform="matrix(0.07407407407407407,0,0,0.07407407407407407,41.48148148148148,0)" xlink:href="#au"/><use transform="matrix(0.07407407407407407,0,0,0.07407407407407407,47.33333333333333,0)" xlink:href="#aE"/><use transform="matrix(0.07407407407407407,0,0,0.07407407407407407,62.14814814814814,0)" xlink:href="#aw"/><use transform="matrix(0.07407407407407407,0,0,0.07407407407407407,76.96296296296295,0)" xlink:href="#aD"/><use transform="matrix(0.07407407407407407,0,0,0.07407407407407407,99.11111111111109,0)" xlink:href="#az"/><use transform="matrix(0.07407407407407407,0,0,0.07407407407407407,113.92592592592591,0)" xlink:href="#aw"/><use transform="matrix(0.07407407407407407,0,0,0.07407407407407407,128.7407407407407,0)" xlink:href="#aq"/></g><g id="s"><use transform="matrix(0.07407407407407407,0,0,0.07407407407407407,0,0)" xlink:href="#aL"/><use transform="matrix(0.07407407407407407,0,0,0.07407407407407407,14.814814814814813,0)" xlink:href="#aN"/></g><g id="t"><use transform="matrix(0.07407407407407407,0,0,0.07407407407407407,0,0)" xlink:href="#as"/><use transform="matrix(0.07407407407407407,0,0,0.07407407407407407,14.814814814814813,0)" xlink:href="#at"/><use transform="matrix(0.07407407407407407,0,0,0.07407407407407407,28.148148148148145,0)" xlink:href="#aq"/><use transform="matrix(0.07407407407407407,0,0,0.07407407407407407,35.55555555555555,0)" xlink:href="#au"/><use transform="matrix(0.07407407407407407,0,0,0.07407407407407407,41.407407407407405,0)" xlink:href="#aF"/><use transform="matrix(0.07407407407407407,0,0,0.07407407407407407,54.740740740740726,0)" xlink:href="#au"/><use transform="matrix(0.07407407407407407,0,0,0.07407407407407407,60.59259259259258,0)" xlink:href="#aq"/><use transform="matrix(0.07407407407407407,0,0,0.07407407407407407,67.99999999999999,0)" xlink:href="#aN"/></g><g id="u"><use transform="matrix(0.07407407407407407,0,0,0.07407407407407407,0,0)" xlink:href="#as"/><use transform="matrix(0.07407407407407407,0,0,0.07407407407407407,14.814814814814813,0)" xlink:href="#aw"/><use transform="matrix(0.07407407407407407,0,0,0.07407407407407407,29.629629629629626,0)" xlink:href="#aA"/></g><path fill="#333" d="M206 0h-36l-40-164L89 0H53L-1-190h32L70-26l43-164h34l41 164 42-164h31" id="aO"/><g id="v"><use transform="matrix(0.07407407407407407,0,0,0.07407407407407407,0,0)" xlink:href="#aq"/><use transform="matrix(0.07407407407407407,0,0,0.07407407407407407,7.4074074074074066,0)" xlink:href="#av"/><use transform="matrix(0.07407407407407407,0,0,0.07407407407407407,22.22222222222222,0)" xlink:href="#aO"/><use transform="matrix(0.07407407407407407,0,0,0.07407407407407407,41.407407407407405,0)" xlink:href="#aw"/></g><path fill="#333" d="M185-189c-5-48-123-54-124 2 14 75 158 14 163 119 3 78-121 87-175 55-17-10-28-26-33-46l33-7c5 56 141 63 141-1 0-78-155-14-162-118-5-82 145-84 179-34 5 7 8 16 11 25" id="aP"/><g id="w"><use transform="matrix(0.07407407407407407,0,0,0.07407407407407407,0,0)" xlink:href="#aP"/><use transform="matrix(0.07407407407407407,0,0,0.07407407407407407,17.77777777777778,0)" xlink:href="#az"/><use transform="matrix(0.07407407407407407,0,0,0.07407407407407407,32.592592592592595,0)" xlink:href="#aM"/><use transform="matrix(0.07407407407407407,0,0,0.07407407407407407,38.44444444444444,0)" xlink:href="#az"/><use transform="matrix(0.07407407407407407,0,0,0.07407407407407407,53.25925925925926,0)" xlink:href="#at"/><use transform="matrix(0.07407407407407407,0,0,0.07407407407407407,66.59259259259258,0)" xlink:href="#aq"/><use transform="matrix(0.07407407407407407,0,0,0.07407407407407407,73.99999999999999,0)" xlink:href="#au"/><use transform="matrix(0.07407407407407407,0,0,0.07407407407407407,79.85185185185183,0)" xlink:href="#av"/><use transform="matrix(0.07407407407407407,0,0,0.07407407407407407,94.66666666666664,0)" xlink:href="#aw"/></g><g id="x"><use transform="matrix(0.07407407407407407,0,0,0.07407407407407407,0,0)" xlink:href="#av"/><use transform="matrix(0.07407407407407407,0,0,0.07407407407407407,14.814814814814813,0)" xlink:href="#ax"/></g><g id="y"><use transform="matrix(0.07407407407407407,0,0,0.07407407407407407,0,0)" xlink:href="#as"/><use transform="matrix(0.07407407407407407,0,0,0.07407407407407407,14.814814814814813,0)" xlink:href="#at"/><use transform="matrix(0.07407407407407407,0,0,0.07407407407407407,28.148148148148145,0)" xlink:href="#aq"/><use transform="matrix(0.07407407407407407,0,0,0.07407407407407407,35.55555555555555,0)" xlink:href="#au"/><use transform="matrix(0.07407407407407407,0,0,0.07407407407407407,41.407407407407405,0)" xlink:href="#aF"/><use transform="matrix(0.07407407407407407,0,0,0.07407407407407407,54.740740740740726,0)" xlink:href="#au"/><use transform="matrix(0.07407407407407407,0,0,0.07407407407407407,60.59259259259258,0)" xlink:href="#aq"/><use transform="matrix(0.07407407407407407,0,0,0.07407407407407407,67.99999999999999,0)" xlink:href="#aN"/></g><g id="z"><use transform="matrix(0.07407407407407407,0,0,0.07407407407407407,0,0)" xlink:href="#aO"/><use transform="matrix(0.07407407407407407,0,0,0.07407407407407407,19.185185185185183,0)" xlink:href="#au"/><use transform="matrix(0.07407407407407407,0,0,0.07407407407407407,25.037037037037035,0)" xlink:href="#aq"/><use transform="matrix(0.07407407407407407,0,0,0.07407407407407407,32.44444444444444,0)" xlink:href="#aH"/></g><g id="A"><use transform="matrix(0.07407407407407407,0,0,0.07407407407407407,0,0)" xlink:href="#aH"/><use transform="matrix(0.07407407407407407,0,0,0.07407407407407407,14.814814814814813,0)" xlink:href="#au"/><use transform="matrix(0.07407407407407407,0,0,0.07407407407407407,20.666666666666664,0)" xlink:href="#aE"/><use transform="matrix(0.07407407407407407,0,0,0.07407407407407407,35.48148148148148,0)" xlink:href="#aH"/><use transform="matrix(0.07407407407407407,0,0,0.07407407407407407,50.29629629629629,0)" xlink:href="#az"/><use transform="matrix(0.07407407407407407,0,0,0.07407407407407407,65.1111111111111,0)" xlink:href="#ar"/></g><g id="B"><use transform="matrix(0.07407407407407407,0,0,0.07407407407407407,0,0)" xlink:href="#ay"/><use transform="matrix(0.07407407407407407,0,0,0.07407407407407407,14.814814814814813,0)" xlink:href="#ar"/><use transform="matrix(0.07407407407407407,0,0,0.07407407407407407,23.629629629629623,0)" xlink:href="#av"/><use transform="matrix(0.07407407407407407,0,0,0.07407407407407407,38.44444444444444,0)" xlink:href="#ax"/><use transform="matrix(0.07407407407407407,0,0,0.07407407407407407,45.85185185185185,0)" xlink:href="#au"/><use transform="matrix(0.07407407407407407,0,0,0.07407407407407407,51.703703703703695,0)" xlink:href="#aq"/><use transform="matrix(0.07407407407407407,0,0,0.07407407407407407,59.1111111111111,0)" xlink:href="#as"/><use transform="matrix(0.07407407407407407,0,0,0.07407407407407407,73.92592592592591,0)" xlink:href="#aL"/><use transform="matrix(0.07407407407407407,0,0,0.07407407407407407,88.74074074074072,0)" xlink:href="#au"/><use transform="matrix(0.07407407407407407,0,0,0.07407407407407407,94.59259259259257,0)" xlink:href="#aM"/><use transform="matrix(0.07407407407407407,0,0,0.07407407407407407,100.44444444444443,0)" xlink:href="#au"/><use transform="matrix(0.07407407407407407,0,0,0.07407407407407407,106.29629629629626,0)" xlink:href="#aq"/><use transform="matrix(0.07407407407407407,0,0,0.07407407407407407,113.70370370370367,0)" xlink:href="#aN"/></g><g id="C"><use transform="matrix(0.07407407407407407,0,0,0.07407407407407407,0,0)" xlink:href="#aL"/><use transform="matrix(0.07407407407407407,0,0,0.07407407407407407,14.814814814814813,0)" xlink:href="#aN"/></g><g id="D"><use transform="matrix(0.07407407407407407,0,0,0.07407407407407407,0,0)" xlink:href="#aJ"/><use transform="matrix(0.07407407407407407,0,0,0.07407407407407407,19.185185185185183,0)" xlink:href="#aM"/><use transform="matrix(0.07407407407407407,0,0,0.07407407407407407,25.037037037037035,0)" xlink:href="#as"/><use transform="matrix(0.07407407407407407,0,0,0.07407407407407407,39.85185185185185,0)" xlink:href="#aB"/><use transform="matrix(0.07407407407407407,0,0,0.07407407407407407,53.185185185185176,0)" xlink:href="#aB"/><use transform="matrix(0.07407407407407407,0,0,0.07407407407407407,66.5185185185185,0)" xlink:href="#au"/><use transform="matrix(0.07407407407407407,0,0,0.07407407407407407,72.37037037037035,0)" xlink:href="#ax"/><use transform="matrix(0.07407407407407407,0,0,0.07407407407407407,79.77777777777776,0)" xlink:href="#au"/><use transform="matrix(0.07407407407407407,0,0,0.07407407407407407,85.6296296296296,0)" xlink:href="#at"/><use transform="matrix(0.07407407407407407,0,0,0.07407407407407407,98.96296296296295,0)" xlink:href="#as"/><use transform="matrix(0.07407407407407407,0,0,0.07407407407407407,113.77777777777774,0)" xlink:href="#aq"/><use transform="matrix(0.07407407407407407,0,0,0.07407407407407407,121.18518518518515,0)" xlink:href="#au"/><use transform="matrix(0.07407407407407407,0,0,0.07407407407407407,127.037037037037,0)" xlink:href="#av"/><use transform="matrix(0.07407407407407407,0,0,0.07407407407407407,141.85185185185182,0)" xlink:href="#aw"/></g><g id="E"><use transform="matrix(0.07407407407407407,0,0,0.07407407407407407,0,0)" xlink:href="#av"/><use transform="matrix(0.07407407407407407,0,0,0.07407407407407407,14.814814814814813,0)" xlink:href="#ax"/></g><g id="F"><use transform="matrix(0.07407407407407407,0,0,0.07407407407407407,0,0)" xlink:href="#ar"/><use transform="matrix(0.07407407407407407,0,0,0.07407407407407407,8.814814814814815,0)" xlink:href="#az"/><use transform="matrix(0.07407407407407407,0,0,0.07407407407407407,23.629629629629623,0)" xlink:href="#aB"/><use transform="matrix(0.07407407407407407,0,0,0.07407407407407407,36.96296296296296,0)" xlink:href="#aI"/><use transform="matrix(0.07407407407407407,0,0,0.07407407407407407,51.77777777777777,0)" xlink:href="#aM"/><use transform="matrix(0.07407407407407407,0,0,0.07407407407407407,57.62962962962962,0)" xlink:href="#aq"/><use transform="matrix(0.07407407407407407,0,0,0.07407407407407407,65.03703703703702,0)" xlink:href="#aB"/></g><path fill="#333" d="M145-31C134-9 116 4 85 4 32 4 16-35 15-94c0-59 17-99 70-100 32-1 48 14 60 33 0-11-1-24 2-32h30l-1 268h-32zM93-21c41 0 51-33 51-76s-8-73-50-73c-40 0-46 35-46 75s5 74 45 74" id="aQ"/><g id="G"><use transform="matrix(0.07407407407407407,0,0,0.07407407407407407,0,0)" xlink:href="#aQ"/><use transform="matrix(0.07407407407407407,0,0,0.07407407407407407,14.814814814814813,0)" xlink:href="#aI"/><use transform="matrix(0.07407407407407407,0,0,0.07407407407407407,29.629629629629626,0)" xlink:href="#as"/><use transform="matrix(0.07407407407407407,0,0,0.07407407407407407,44.44444444444444,0)" xlink:href="#ar"/><use transform="matrix(0.07407407407407407,0,0,0.07407407407407407,53.25925925925926,0)" xlink:href="#aq"/><use transform="matrix(0.07407407407407407,0,0,0.07407407407407407,60.666666666666664,0)" xlink:href="#au"/><use transform="matrix(0.07407407407407407,0,0,0.07407407407407407,66.51851851851852,0)" xlink:href="#aM"/><use transform="matrix(0.07407407407407407,0,0,0.07407407407407407,72.37037037037037,0)" xlink:href="#az"/><use transform="matrix(0.07407407407407407,0,0,0.07407407407407407,87.18518518518518,0)" xlink:href="#aB"/></g><path fill="#333" d="M30 0v-248h33v221h125V0H30" id="aR"/><g id="H"><use transform="matrix(0.07407407407407407,0,0,0.07407407407407407,0,0)" xlink:href="#aR"/><use transform="matrix(0.07407407407407407,0,0,0.07407407407407407,14.814814814814813,0)" xlink:href="#av"/><use transform="matrix(0.07407407407407407,0,0,0.07407407407407407,29.629629629629626,0)" xlink:href="#aO"/></g><path fill="#333" d="M240 0l2-218c-23 76-54 145-80 218h-23L58-218 59 0H30v-248h44l77 211c21-75 51-140 76-211h43V0h-30" id="aS"/><g id="I"><use transform="matrix(0.07407407407407407,0,0,0.07407407407407407,0,0)" xlink:href="#aS"/><use transform="matrix(0.07407407407407407,0,0,0.07407407407407407,22.148148148148145,0)" xlink:href="#az"/><use transform="matrix(0.07407407407407407,0,0,0.07407407407407407,36.96296296296296,0)" xlink:href="#aA"/><use transform="matrix(0.07407407407407407,0,0,0.07407407407407407,51.77777777777777,0)" xlink:href="#au"/><use transform="matrix(0.07407407407407407,0,0,0.07407407407407407,57.62962962962962,0)" xlink:href="#aI"/><use transform="matrix(0.07407407407407407,0,0,0.07407407407407407,72.44444444444443,0)" xlink:href="#aD"/></g><g id="J"><use transform="matrix(0.07407407407407407,0,0,0.07407407407407407,0,0)" xlink:href="#aG"/><use transform="matrix(0.07407407407407407,0,0,0.07407407407407407,19.185185185185183,0)" xlink:href="#au"/><use transform="matrix(0.07407407407407407,0,0,0.07407407407407407,25.037037037037035,0)" xlink:href="#aE"/><use transform="matrix(0.07407407407407407,0,0,0.07407407407407407,39.85185185185185,0)" xlink:href="#aH"/></g><path fill="#333" d="M137 0h-34L2-248h35l83 218 83-218h36" id="aT"/><g id="K"><use transform="matrix(0.07407407407407407,0,0,0.07407407407407407,0,0)" xlink:href="#aT"/><use transform="matrix(0.07407407407407407,0,0,0.07407407407407407,16.296296296296298,0)" xlink:href="#az"/><use transform="matrix(0.07407407407407407,0,0,0.07407407407407407,31.11111111111111,0)" xlink:href="#ar"/><use transform="matrix(0.07407407407407407,0,0,0.07407407407407407,39.925925925925924,0)" xlink:href="#aN"/></g><g id="L"><use transform="matrix(0.07407407407407407,0,0,0.07407407407407407,0,0)" xlink:href="#aH"/><use transform="matrix(0.07407407407407407,0,0,0.07407407407407407,14.814814814814813,0)" xlink:href="#au"/><use transform="matrix(0.07407407407407407,0,0,0.07407407407407407,20.666666666666664,0)" xlink:href="#aE"/><use transform="matrix(0.07407407407407407,0,0,0.07407407407407407,35.48148148148148,0)" xlink:href="#aH"/></g><path fill="#333" d="M127-220V0H93v-220H8v-28h204v28h-85" id="aU"/><g id="M"><use transform="matrix(0.07407407407407407,0,0,0.07407407407407407,0,0)" xlink:href="#aU"/><use transform="matrix(0.07407407407407407,0,0,0.07407407407407407,15.259259259259258,0)" xlink:href="#ar"/><use transform="matrix(0.07407407407407407,0,0,0.07407407407407407,24.074074074074073,0)" xlink:href="#av"/><use transform="matrix(0.07407407407407407,0,0,0.07407407407407407,38.888888888888886,0)" xlink:href="#ay"/><use transform="matrix(0.07407407407407407,0,0,0.07407407407407407,53.703703703703695,0)" xlink:href="#au"/><use transform="matrix(0.07407407407407407,0,0,0.07407407407407407,59.55555555555554,0)" xlink:href="#at"/><use transform="matrix(0.07407407407407407,0,0,0.07407407407407407,72.88888888888887,0)" xlink:href="#as"/><use transform="matrix(0.07407407407407407,0,0,0.07407407407407407,87.70370370370368,0)" xlink:href="#aM"/></g><g id="N"><use transform="matrix(0.07407407407407407,0,0,0.07407407407407407,0,0)" xlink:href="#aA"/><use transform="matrix(0.07407407407407407,0,0,0.07407407407407407,14.814814814814813,0)" xlink:href="#ar"/><use transform="matrix(0.07407407407407407,0,0,0.07407407407407407,23.629629629629623,0)" xlink:href="#aN"/></g><g id="O"><use transform="matrix(0.07407407407407407,0,0,0.07407407407407407,0,0)" xlink:href="#ax"/><use transform="matrix(0.07407407407407407,0,0,0.07407407407407407,7.4074074074074066,0)" xlink:href="#av"/><use transform="matrix(0.07407407407407407,0,0,0.07407407407407407,22.22222222222222,0)" xlink:href="#ar"/><use transform="matrix(0.07407407407407407,0,0,0.07407407407407407,31.037037037037038,0)" xlink:href="#az"/><use transform="matrix(0.07407407407407407,0,0,0.07407407407407407,45.85185185185185,0)" xlink:href="#aB"/><use transform="matrix(0.07407407407407407,0,0,0.07407407407407407,59.185185185185176,0)" xlink:href="#aq"/></g><g id="P"><use transform="matrix(0.07407407407407407,0,0,0.07407407407407407,0,0)" xlink:href="#aM"/><use transform="matrix(0.07407407407407407,0,0,0.07407407407407407,5.851851851851851,0)" xlink:href="#as"/><use transform="matrix(0.07407407407407407,0,0,0.07407407407407407,20.666666666666664,0)" xlink:href="#aN"/><use transform="matrix(0.07407407407407407,0,0,0.07407407407407407,34,0)" xlink:href="#az"/><use transform="matrix(0.07407407407407407,0,0,0.07407407407407407,48.81481481481481,0)" xlink:href="#ar"/></g><g id="Q"><use transform="matrix(0.07407407407407407,0,0,0.07407407407407407,0,0)" xlink:href="#aC"/><use transform="matrix(0.07407407407407407,0,0,0.07407407407407407,16.22222222222222,0)" xlink:href="#av"/><use transform="matrix(0.07407407407407407,0,0,0.07407407407407407,31.037037037037035,0)" xlink:href="#ar"/><use transform="matrix(0.07407407407407407,0,0,0.07407407407407407,39.85185185185185,0)" xlink:href="#az"/><use transform="matrix(0.07407407407407407,0,0,0.07407407407407407,54.66666666666666,0)" xlink:href="#aB"/><use transform="matrix(0.07407407407407407,0,0,0.07407407407407407,67.99999999999999,0)" xlink:href="#aq"/><use transform="matrix(0.07407407407407407,0,0,0.07407407407407407,75.40740740740739,0)" xlink:href="#ar"/><use transform="matrix(0.07407407407407407,0,0,0.07407407407407407,84.2222222222222,0)" xlink:href="#aN"/></g><path fill="#333" d="M143 0L79-87 56-68V0H24v-261h32v163l83-92h37l-77 82L181 0h-38" id="aV"/><g id="R"><use transform="matrix(0.07407407407407407,0,0,0.07407407407407407,0,0)" xlink:href="#aR"/><use transform="matrix(0.07407407407407407,0,0,0.07407407407407407,14.814814814814813,0)" xlink:href="#au"/><use transform="matrix(0.07407407407407407,0,0,0.07407407407407407,20.666666666666664,0)" xlink:href="#aF"/><use transform="matrix(0.07407407407407407,0,0,0.07407407407407407,34,0)" xlink:href="#az"/><use transform="matrix(0.07407407407407407,0,0,0.07407407407407407,48.81481481481481,0)" xlink:href="#aB"/><use transform="matrix(0.07407407407407407,0,0,0.07407407407407407,62.14814814814814,0)" xlink:href="#aq"/><use transform="matrix(0.07407407407407407,0,0,0.07407407407407407,69.55555555555554,0)" xlink:href="#av"/><use transform="matrix(0.07407407407407407,0,0,0.07407407407407407,84.37037037037035,0)" xlink:href="#at"/><use transform="matrix(0.07407407407407407,0,0,0.07407407407407407,97.70370370370368,0)" xlink:href="#aV"/></g><g id="S"><use transform="matrix(0.07407407407407407,0,0,0.07407407407407407,0,0)" xlink:href="#aK"/><use transform="matrix(0.07407407407407407,0,0,0.07407407407407407,17.77777777777778,0)" xlink:href="#av"/><use transform="matrix(0.07407407407407407,0,0,0.07407407407407407,32.592592592592595,0)" xlink:href="#aI"/><use transform="matrix(0.07407407407407407,0,0,0.07407407407407407,47.407407407407405,0)" xlink:href="#aM"/><use transform="matrix(0.07407407407407407,0,0,0.07407407407407407,53.25925925925926,0)" xlink:href="#aq"/><use transform="matrix(0.07407407407407407,0,0,0.07407407407407407,60.66666666666666,0)" xlink:href="#ar"/><use transform="matrix(0.07407407407407407,0,0,0.07407407407407407,69.48148148148147,0)" xlink:href="#aN"/></g><g id="T"><use transform="matrix(0.07407407407407407,0,0,0.07407407407407407,0,0)" xlink:href="#ax"/><use transform="matrix(0.07407407407407407,0,0,0.07407407407407407,7.4074074074074066,0)" xlink:href="#as"/><use transform="matrix(0.07407407407407407,0,0,0.07407407407407407,22.22222222222222,0)" xlink:href="#ar"/><use transform="matrix(0.07407407407407407,0,0,0.07407407407407407,31.037037037037038,0)" xlink:href="#aD"/><use transform="matrix(0.07407407407407407,0,0,0.07407407407407407,53.18518518518518,0)" xlink:href="#au"/><use transform="matrix(0.07407407407407407,0,0,0.07407407407407407,59.037037037037045,0)" xlink:href="#aw"/><use transform="matrix(0.07407407407407407,0,0,0.07407407407407407,73.85185185185185,0)" xlink:href="#aE"/></g><g id="U"><use transform="matrix(0.07407407407407407,0,0,0.07407407407407407,0,0)" xlink:href="#aR"/><use transform="matrix(0.07407407407407407,0,0,0.07407407407407407,14.814814814814813,0)" xlink:href="#as"/><use transform="matrix(0.07407407407407407,0,0,0.07407407407407407,29.629629629629626,0)" xlink:href="#ar"/><use transform="matrix(0.07407407407407407,0,0,0.07407407407407407,38.44444444444444,0)" xlink:href="#aE"/><use transform="matrix(0.07407407407407407,0,0,0.07407407407407407,53.25925925925926,0)" xlink:href="#az"/><use transform="matrix(0.07407407407407407,0,0,0.07407407407407407,68.07407407407406,0)" xlink:href="#aB"/><use transform="matrix(0.07407407407407407,0,0,0.07407407407407407,81.40740740740739,0)" xlink:href="#aq"/></g><g id="V"><use transform="matrix(0.07407407407407407,0,0,0.07407407407407407,0,0)" xlink:href="#ay"/><use transform="matrix(0.07407407407407407,0,0,0.07407407407407407,14.814814814814813,0)" xlink:href="#aM"/><use transform="matrix(0.07407407407407407,0,0,0.07407407407407407,20.666666666666664,0)" xlink:href="#as"/><use transform="matrix(0.07407407407407407,0,0,0.07407407407407407,35.48148148148148,0)" xlink:href="#aw"/><use transform="matrix(0.07407407407407407,0,0,0.07407407407407407,50.29629629629629,0)" xlink:href="#aq"/><use transform="matrix(0.07407407407407407,0,0,0.07407407407407407,57.703703703703695,0)" xlink:href="#az"/><use transform="matrix(0.07407407407407407,0,0,0.07407407407407407,72.5185185185185,0)" xlink:href="#aA"/></g><g id="W"><use transform="matrix(0.07407407407407407,0,0,0.07407407407407407,0,0)" xlink:href="#as"/><use transform="matrix(0.07407407407407407,0,0,0.07407407407407407,14.814814814814813,0)" xlink:href="#ar"/><use transform="matrix(0.07407407407407407,0,0,0.07407407407407407,23.629629629629623,0)" xlink:href="#az"/><use transform="matrix(0.07407407407407407,0,0,0.07407407407407407,38.44444444444444,0)" xlink:href="#as"/></g></defs></g></svg>